<svg width="40" height="40" viewBox="0 0 40 40" fill="none" xmlns="http://www.w3.org/2000/svg">
<rect width="40" height="40" rx="20" fill="white"/>
<path d="M24.123 26.0831V28.0849C24.123 28.3316 23.9298 28.5238 23.6841 28.5238H16.1167C15.8708 28.5238 15.6777 28.3316 15.6777 28.0849V26.0928C15.7471 26.1366 15.8172 26.1796 15.8876 26.2236C16.107 26.3465 16.3265 26.4693 16.5556 26.5757C16.6515 26.6187 16.7488 26.6625 16.8542 26.7064C17.0033 26.7679 17.1605 26.8303 17.3186 26.8821C17.4855 26.9356 17.6532 26.9875 17.819 27.0313C17.9421 27.0665 18.0658 27.1015 18.1878 27.12C18.2853 27.1455 18.381 27.163 18.4775 27.1805C18.5565 27.199 18.6356 27.2157 18.7154 27.2245C18.8199 27.2342 18.935 27.2509 19.0395 27.2595C19.18 27.2772 19.3204 27.2947 19.4698 27.2947C19.6101 27.3122 19.7595 27.3122 19.8999 27.3122C20.0412 27.3122 20.1904 27.3122 20.331 27.2947C20.4802 27.2947 20.6207 27.2772 20.7613 27.2595C20.8658 27.2509 20.9806 27.2342 21.0851 27.2245C21.165 27.2157 21.244 27.199 21.323 27.1805C21.4198 27.163 21.5154 27.1455 21.6128 27.12C21.735 27.1015 21.8587 27.0665 21.9815 27.0313C22.1476 26.9875 22.3145 26.9356 22.482 26.8821C22.64 26.8303 22.7886 26.7679 22.9466 26.7064C23.044 26.6625 23.1493 26.6187 23.245 26.5757C23.4645 26.4693 23.6936 26.3465 23.9035 26.2236C23.9833 26.1796 24.0537 26.1366 24.123 26.0831Z" fill="#B66C0C"/>
<path d="M27.8037 19.4119C27.8037 22.1073 26.3989 24.6359 24.125 26.0846C24.0546 26.1373 23.9845 26.1811 23.9055 26.225C23.6947 26.3472 23.4665 26.4709 23.247 26.5762C23.1505 26.62 23.0451 26.6641 22.9484 26.7079C22.7904 26.7694 22.6412 26.8308 22.4831 26.8834C22.3162 26.9361 22.1496 26.9888 21.9827 27.0328C21.8598 27.0678 21.7368 27.103 21.6139 27.1205C21.5174 27.1468 21.4207 27.1645 21.3242 27.182C21.2452 27.1995 21.1662 27.2172 21.0871 27.225C20.9818 27.2347 20.8676 27.2522 20.7622 27.2602C20.6219 27.2785 20.4725 27.2874 20.3321 27.2954C20.1916 27.3137 20.0424 27.3137 19.9019 27.3137C19.7613 27.3137 19.6121 27.3137 19.4716 27.2954C19.3312 27.2874 19.1818 27.2785 19.0415 27.2602C18.9361 27.2522 18.8219 27.2347 18.7166 27.225C18.6376 27.2172 18.5585 27.1995 18.4795 27.182C18.383 27.1645 18.2863 27.1468 18.1898 27.1205C18.0669 27.103 17.9439 27.0678 17.821 27.0328C17.6541 26.9888 17.4875 26.9361 17.3206 26.8834C17.1625 26.8308 17.0045 26.7694 16.8553 26.7079C16.75 26.6641 16.6532 26.62 16.5567 26.5762C16.3285 26.4709 16.109 26.3472 15.8894 26.225C15.8192 26.1811 15.7491 26.1373 15.6787 26.0933C13.4048 24.6446 12 22.1073 12 19.4119C12 19.6578 12.1932 19.8508 12.4389 19.8508H27.3648C27.6105 19.8508 27.8037 19.6578 27.8037 19.4119Z" fill="#FFE082"/>
<path d="M27.8037 18.0946V19.4116C27.8037 19.6575 27.6105 19.8505 27.3648 19.8505H12.4389C12.1932 19.8505 12 19.6575 12 19.4116V18.0946C12 17.8576 12.1932 17.6557 12.4389 17.6557H27.3648C27.6105 17.6557 27.8037 17.8576 27.8037 18.0946Z" fill="#B66C0C"/>
<path d="M24.3605 16.505C24.1586 16.7509 23.8775 16.9001 23.5615 16.9264H23.5176C23.2981 16.9264 23.1051 16.7509 23.0874 16.5227C23.061 16.2768 23.2445 16.066 23.4824 16.0485C23.6485 16.0308 23.781 15.8905 23.7635 15.7236C23.7547 15.6446 23.7195 15.5656 23.6582 15.5129C23.5878 15.4602 23.5176 15.4427 23.4289 15.4427C23.2445 15.4602 23.0874 15.3637 22.9997 15.2057C22.9207 15.0476 22.9382 14.8544 23.0524 14.7227C23.1664 14.591 23.1489 14.4066 23.0172 14.2924C22.8943 14.1871 22.7011 14.2048 22.5958 14.3276C22.4815 14.4682 22.2885 14.5209 22.1216 14.4682C21.9548 14.4066 21.8319 14.2575 21.8231 14.0817C21.8144 14.0116 21.7792 13.95 21.7265 13.9062C21.665 13.8624 21.586 13.8447 21.4983 13.8535C21.4105 13.8535 21.3403 13.8973 21.2876 13.9589C21.2341 14.0204 21.2086 14.0994 21.2172 14.1784C21.2341 14.4155 21.0592 14.6349 20.8135 14.6526C20.5756 14.67 20.3657 14.4945 20.3394 14.2486C20.3131 13.9325 20.4184 13.634 20.6203 13.3883C20.8222 13.1512 21.1119 13.0018 21.4193 12.9755C21.7354 12.9491 22.0338 13.037 22.2708 13.2125C22.3412 13.274 22.4025 13.3356 22.4552 13.4057C22.8328 13.2829 23.2631 13.3531 23.5878 13.6253C23.9127 13.8973 24.0444 14.3013 23.9917 14.6964C24.0708 14.7316 24.1498 14.7843 24.22 14.8369C24.4659 15.0476 24.615 15.3285 24.6414 15.6446C24.6677 15.9607 24.5615 16.2679 24.3605 16.505ZM21.7792 17.1723C21.5597 17.2425 21.3315 17.1196 21.2613 16.9089C21.1998 16.6893 21.314 16.4611 21.5333 16.391C21.7529 16.3206 21.9811 16.4436 22.0515 16.663C22.1119 16.8737 21.9988 17.1108 21.7792 17.1723ZM20.0233 15.9432C19.8038 16.0134 19.5756 15.8905 19.5052 15.6798C19.4439 15.4602 19.5579 15.232 19.7774 15.1616C19.997 15.0915 20.2252 15.2143 20.2954 15.4339C20.3561 15.6446 20.2427 15.8728 20.0233 15.9432ZM18.9872 14.6526C18.7413 14.6349 18.5658 14.4155 18.5833 14.1784C18.5921 14.0994 18.5658 14.0204 18.5131 13.9589C18.4604 13.8973 18.3903 13.8535 18.3024 13.8535C18.2145 13.8447 18.1355 13.8624 18.0742 13.9062C18.0215 13.95 17.9863 14.0116 17.9766 14.0817C17.9688 14.2575 17.8458 14.4066 17.6791 14.4682C17.5122 14.5209 17.3182 14.4682 17.205 14.3276C17.0988 14.2048 16.9064 14.1871 16.7836 14.2924C16.6519 14.4066 16.6342 14.591 16.7484 14.7227C16.8626 14.8544 16.8792 15.0476 16.8011 15.2057C16.722 15.3637 16.564 15.4602 16.3708 15.4427C16.2918 15.4427 16.2127 15.4602 16.1426 15.5129C16.081 15.5656 16.0461 15.6446 16.0372 15.7236C16.0197 15.8905 16.1514 16.0308 16.3181 16.0485C16.5552 16.066 16.7395 16.2768 16.7132 16.5227C16.6957 16.7509 16.5025 16.9264 16.2831 16.9264H16.2391C15.923 16.9001 15.6421 16.7509 15.4403 16.505C15.2382 16.2679 15.1328 15.9607 15.1592 15.6446C15.1855 15.3285 15.3349 15.0476 15.5806 14.8369C15.651 14.7843 15.73 14.7316 15.809 14.6964C15.7563 14.3013 15.8967 13.8973 16.2127 13.6253C16.5377 13.3531 16.9679 13.2829 17.3453 13.4057C17.398 13.3356 17.4595 13.274 17.5297 13.2125C17.7668 13.037 18.0654 12.9491 18.3806 12.9755C18.6887 13.0018 18.9784 13.1512 19.1805 13.3883C19.3823 13.634 19.4877 13.9325 19.4614 14.2486C19.435 14.4945 19.2243 14.6789 18.9872 14.6526ZM18.2672 17.1723C18.0479 17.2425 17.8195 17.1196 17.7493 16.9089C17.6878 16.6893 17.802 16.4611 18.0215 16.391C18.2409 16.3206 18.4693 16.4436 18.5395 16.663C18.6002 16.8737 18.4868 17.1108 18.2672 17.1723ZM19.9003 11C16.1337 11 13.052 13.95 12.8238 17.6553H26.9761C26.7485 13.95 23.6668 11 19.9003 11Z" fill="#FFFADD"/>
<path d="M19.4634 14.2491C19.4371 14.495 19.2263 14.6794 18.9893 14.653C18.7434 14.6356 18.5679 14.416 18.5853 14.1789C18.5942 14.0999 18.5679 14.0209 18.5152 13.9594C18.4625 13.898 18.3921 13.854 18.3045 13.854C18.2166 13.8454 18.1376 13.8629 18.076 13.9067C18.0234 13.9507 17.9884 14.0112 17.9795 14.0824C17.9707 14.2579 17.8478 14.4071 17.681 14.4687C17.5143 14.5213 17.3211 14.4687 17.2068 14.3281C17.1015 14.2053 16.9085 14.1878 16.7854 14.2931C16.6537 14.4071 16.6362 14.5915 16.7504 14.7232C16.8644 14.8549 16.8821 15.0481 16.8031 15.2062C16.7241 15.3642 16.5661 15.4607 16.3728 15.4432C16.2938 15.4432 16.2148 15.4607 16.1446 15.5134C16.0831 15.5661 16.0479 15.6451 16.0393 15.7241C16.0216 15.891 16.1533 16.0315 16.3202 16.049C16.5572 16.0665 16.7416 16.2772 16.7152 16.5231C16.6978 16.7514 16.5045 16.9271 16.285 16.9271H16.2411C15.9251 16.9008 15.6442 16.7514 15.4421 16.5057C15.2402 16.2686 15.1349 15.9612 15.1612 15.6451C15.1876 15.3282 15.3367 15.0481 15.5826 14.8374C15.6528 14.7847 15.7318 14.7321 15.8109 14.6969C15.7582 14.3018 15.8987 13.898 16.2148 13.6258C16.5397 13.3527 16.9698 13.2834 17.3474 13.4062C17.4001 13.3361 17.4616 13.2745 17.5318 13.2132C17.7688 13.0375 18.0674 12.9498 18.3835 12.9762C18.6907 13.0025 18.9804 13.1517 19.1823 13.3887C19.3844 13.6347 19.4897 13.933 19.4634 14.2491Z" fill="#FFE764"/>
<path d="M24.6442 15.6453C24.6697 15.9614 24.5643 16.2686 24.3631 16.5057C24.1604 16.7516 23.8803 16.9007 23.5643 16.9271H23.5202C23.3009 16.9271 23.1076 16.7516 23.0893 16.5234C23.063 16.2774 23.2473 16.0667 23.4852 16.0492C23.6511 16.0315 23.7836 15.8912 23.7661 15.7243C23.7564 15.6453 23.7215 15.5663 23.6608 15.5136C23.5906 15.4609 23.5202 15.4434 23.4317 15.4434C23.2473 15.4609 23.0893 15.3644 23.0023 15.2064C22.9233 15.0483 22.9408 14.8551 23.0541 14.7234C23.1683 14.5917 23.1515 14.4073 23.0189 14.2931C22.8969 14.1878 22.7037 14.2055 22.5983 14.3283C22.4843 14.4689 22.2903 14.5215 22.1242 14.4689C21.9567 14.4073 21.8345 14.2582 21.8259 14.0824C21.8162 14.0122 21.781 13.9507 21.7291 13.9069C21.667 13.8631 21.5888 13.8454 21.5009 13.8542C21.4122 13.8542 21.342 13.898 21.2902 13.9596C21.2367 14.0211 21.2112 14.1001 21.22 14.1791C21.2367 14.4162 21.062 14.6355 20.8161 14.6532C20.5782 14.6707 20.3683 14.4952 20.342 14.2493C20.3148 13.9332 20.4202 13.6346 20.6229 13.3889C20.8241 13.1519 21.1138 13.0025 21.4219 12.9762C21.7371 12.9498 22.0357 13.0377 22.2736 13.2132C22.3438 13.2747 22.4045 13.3363 22.458 13.4064C22.8345 13.2836 23.2657 13.3538 23.5906 13.626C23.9153 13.898 24.0462 14.302 23.9943 14.6971C24.0733 14.7323 24.1515 14.7849 24.2227 14.8376C24.4684 15.0483 24.6178 15.3292 24.6442 15.6453Z" fill="#FFE764"/>
<path d="M20.0241 15.9425C19.8046 16.0126 19.5763 15.8898 19.506 15.6791C19.4455 15.4595 19.5595 15.2313 19.7791 15.1611C19.9986 15.0908 20.226 15.2138 20.297 15.4332C20.3577 15.6439 20.2435 15.8723 20.0241 15.9425Z" fill="#FFE764"/>
<path d="M21.7818 17.1714C21.5622 17.2415 21.334 17.1187 21.2639 16.908C21.2032 16.6884 21.3174 16.4602 21.5369 16.3898C21.7563 16.3196 21.9837 16.4425 22.0549 16.6621C22.1154 16.8728 22.0014 17.1098 21.7818 17.1714Z" fill="#FFE764"/>
<path d="M18.2695 17.1714C18.0502 17.2415 17.8218 17.1187 17.7516 16.908C17.6909 16.6884 17.8051 16.4602 18.0247 16.3898C18.244 16.3196 18.4716 16.4425 18.5426 16.6621C18.6033 16.8728 18.4891 17.1098 18.2695 17.1714Z" fill="#FFE764"/>
</svg>
