<svg width="40" height="40" viewBox="0 0 40 40" fill="none" xmlns="http://www.w3.org/2000/svg">
<rect width="40" height="40" rx="20" fill="white"/>
<path d="M24.6906 24.5581H20.7587C20.79 24.5581 20.8214 24.5581 20.8457 24.5502C21.355 24.5188 21.7954 24.2127 21.9917 23.7733H21.9986C22.0143 23.7497 22.0229 23.7254 22.0301 23.694C22.0614 23.632 22.0859 23.5606 22.0928 23.4907C22.1085 23.4357 22.1243 23.373 22.1171 23.3103C22.1243 23.2868 22.132 23.2709 22.1243 23.2474C22.132 23.2318 22.132 23.2082 22.132 23.1847V21.9596C22.132 21.8818 22.1486 21.8035 22.1791 21.7321C22.242 21.5916 22.3526 21.4816 22.4931 21.4268C22.5322 21.4025 22.5716 21.3953 22.6115 21.3874C22.65 21.3874 22.6893 21.3797 22.7285 21.3797C22.7677 21.3797 22.8078 21.3874 22.8462 21.3874C22.8854 21.3953 22.9248 21.4025 22.956 21.4268C23.0267 21.4503 23.0896 21.4974 23.1374 21.5522C23.1915 21.6072 23.2316 21.6622 23.263 21.7321C23.2943 21.8035 23.3092 21.8818 23.3092 21.9596V23.1847C23.3092 23.373 23.3486 23.5535 23.4192 23.7106C23.4192 23.7254 23.4279 23.7341 23.4348 23.7418C23.4348 23.7497 23.4348 23.7569 23.4427 23.7569V23.7733H23.4591C23.6624 24.2127 24.1106 24.5267 24.6199 24.5502C24.6435 24.5581 24.6678 24.5581 24.6906 24.5581Z" fill="#FF8D7D"/>
<path d="M19.3702 20.4215V21.6153H12.0314C11.8203 21.6153 11.6391 21.7871 11.6391 22.0076V20.4215H19.3702Z" fill="#FFFADD"/>
<path d="M28.0492 24.1656V26.8184C28.0492 27.038 27.8767 27.2107 27.6569 27.2107H12.0316C11.8197 27.2107 11.6391 27.038 11.6391 26.8184V24.1656C11.6391 24.3855 11.8197 24.5582 12.0316 24.5582H27.6569C27.8767 24.5582 28.0492 24.3855 28.0492 24.1656Z" fill="#FE624A"/>
<path d="M20.7506 24.5576H12.0314C11.8195 24.5576 11.6391 24.3849 11.6391 24.1651V22.007C11.6391 21.7872 11.8195 21.6146 12.0314 21.6146H19.3694V23.1842C19.3694 23.3638 19.4007 23.5373 19.4713 23.6935C19.4792 23.7249 19.4871 23.7492 19.5028 23.7728C19.5655 23.914 19.6589 24.0396 19.7774 24.1487C19.8403 24.2122 19.9109 24.2751 19.9816 24.3222C20.1776 24.4555 20.4123 24.541 20.6713 24.5497C20.6956 24.5576 20.7271 24.5576 20.7506 24.5576Z" fill="#FF8D7D"/>
<path d="M25.5077 21.2931C24.8091 21.2931 24.2364 20.728 24.2364 20.0217C24.2364 19.3233 24.8091 18.759 25.5077 18.759C26.2069 18.759 26.7791 19.3233 26.7791 20.0217C26.7791 20.728 26.2069 21.2931 25.5077 21.2931ZM23.2711 16.7883C23.2711 17.275 22.8785 17.6673 22.392 17.6673H20.3836C19.8971 17.6673 19.4961 17.275 19.4961 16.7883V16.6549C19.4961 16.1684 19.8971 15.7759 20.3836 15.7759H22.392C22.8785 15.7759 23.2711 16.1684 23.2711 16.6549V16.7883ZM20.1397 18.9151H18.9938C18.7742 18.9151 18.6015 18.7424 18.6015 18.5228C18.6015 18.303 18.7742 18.1303 18.9938 18.1303H20.1397C20.3524 18.1303 20.5321 18.303 20.5321 18.5228C20.5321 18.7424 20.3524 18.9151 20.1397 18.9151ZM17.0483 18.9151H14.0889C13.8691 18.9151 13.6964 18.7424 13.6964 18.5228C13.6964 18.303 13.8691 18.1303 14.0889 18.1303H17.0483C17.2674 18.1303 17.4406 18.303 17.4406 18.5228C17.4406 18.7424 17.2674 18.9151 17.0483 18.9151ZM27.9169 17.4946L23.7105 13.8453C23.6877 13.8539 23.6634 13.8688 23.6399 13.8767C23.7192 14.1749 23.6877 14.4889 23.5621 14.7635C23.5065 14.9127 23.4123 15.0539 23.2867 15.1796C23.0364 15.4306 22.6981 15.5719 22.337 15.5719C21.9761 15.5719 21.6465 15.4306 21.3875 15.1873C21.2619 15.305 21.1127 15.4071 20.9558 15.4698C20.791 15.5327 20.6191 15.5719 20.4379 15.5719C20.2582 15.5719 20.0847 15.5404 19.9286 15.4698C19.7638 15.4071 19.6138 15.305 19.4882 15.1796C19.4255 15.1166 19.3712 15.046 19.3234 14.9754C19.2771 14.897 19.2292 14.8185 19.198 14.7399C19.1123 14.5281 19.081 14.2926 19.1038 14.0651C19.1123 14.0101 19.1194 13.9474 19.1351 13.8846C19.1273 13.8767 19.1194 13.8767 19.1123 13.8688H19.1038L11.9472 17.4004H11.5234C10.6828 17.4004 10 18.0755 10 18.9072C10 19.7399 10.6828 20.4219 11.5234 20.4219H12.425V20.414H19.3712V23.1845C19.3712 23.3649 19.4027 23.5377 19.4733 23.6946C19.4805 23.726 19.4882 23.7496 19.5048 23.7731C19.5675 23.9144 19.6609 24.0398 19.7786 24.1498C19.8414 24.2125 19.912 24.2752 19.9826 24.3223C20.1789 24.4559 20.4143 24.5421 20.6733 24.55C20.6969 24.5578 20.7283 24.5578 20.7519 24.5578H20.7596C20.791 24.5578 20.8225 24.5578 20.8468 24.55C21.3561 24.5186 21.7963 24.2125 21.9925 23.7731H21.9997C22.0153 23.7496 22.024 23.726 22.031 23.6946C22.0624 23.6318 22.0867 23.5612 22.0939 23.4906C22.1095 23.4356 22.1251 23.3729 22.1182 23.3099C22.1251 23.2864 22.133 23.2715 22.1251 23.2472V21.9602C22.1251 21.8817 22.141 21.8031 22.1801 21.7325C22.2429 21.5912 22.3528 21.4814 22.4941 21.4264C22.5333 21.4029 22.5725 21.3952 22.6126 21.3872C22.651 21.3716 22.6902 21.3716 22.7296 21.3716C22.7687 21.3716 22.8087 21.3793 22.8473 21.3872C22.8865 21.3952 22.9256 21.4029 22.9571 21.4264C23.0277 21.45 23.0904 21.4971 23.1375 21.5521C23.1925 21.6071 23.2325 21.6619 23.2639 21.7325C23.2954 21.8031 23.3102 21.8817 23.3102 21.9602V23.1845C23.3102 23.3729 23.3494 23.5533 23.4201 23.7102C23.4201 23.726 23.4287 23.7337 23.4359 23.7416C23.4359 23.7496 23.4359 23.7573 23.4436 23.7573V23.7652C23.4515 23.7652 23.4515 23.7731 23.4602 23.7731C23.6634 24.2125 24.1115 24.5265 24.6208 24.55C24.6443 24.5578 24.6686 24.5578 24.6914 24.5578H24.7001C24.7308 24.5578 24.7543 24.5578 24.7856 24.55C25.2958 24.5186 25.7274 24.2125 25.9393 23.7731C25.9479 23.7496 25.9628 23.726 25.9707 23.7025C25.9794 23.6946 25.9794 23.6866 25.9794 23.671C26.0106 23.6083 26.0334 23.5377 26.0421 23.4747C26.0492 23.4591 26.0492 23.4435 26.0492 23.4277C26.0735 23.3414 26.0805 23.2472 26.0805 23.153C26.0805 23.0754 26.0963 22.9961 26.1276 22.9255C26.2141 22.7136 26.426 22.5644 26.6691 22.5644C26.7241 22.5644 26.7712 22.5644 26.827 22.5565C26.8418 22.5565 26.8582 22.5488 26.8733 22.5488H26.8889C26.9516 22.5409 27.0146 22.5253 27.0773 22.5017C27.1087 22.4938 27.14 22.4782 27.1714 22.4703C27.2029 22.4546 27.2342 22.4388 27.2656 22.4232C27.3127 22.3996 27.3526 22.3761 27.3913 22.3446C27.6344 22.2034 27.8228 21.9838 27.9328 21.7248C28.0111 21.56 28.0505 21.3716 28.0505 21.1833V17.7929C28.0505 17.6829 28.0042 17.5731 27.9169 17.4946Z" fill="#FFE082"/>
<path d="M27.9349 21.7248C27.8249 21.9838 27.6366 22.2036 27.3942 22.3448C27.3548 22.3761 27.3149 22.3996 27.2678 22.4239V22.4311C27.2364 22.439 27.2051 22.4554 27.1736 22.4703C27.1422 22.4782 27.1109 22.4938 27.0795 22.5017C27.0167 22.526 26.9538 22.5409 26.8911 22.5488H26.8755C26.8604 22.5488 26.844 22.5575 26.8291 22.5575C26.7741 22.5644 26.7263 22.5644 26.672 22.5644C26.4281 22.5644 26.217 22.7136 26.1298 22.9255C26.0985 22.9961 26.0835 23.0754 26.0835 23.153C26.0835 23.2472 26.0757 23.3422 26.0522 23.4279C26.0522 23.4435 26.0522 23.4591 26.0443 23.4749C26.0356 23.5384 26.0128 23.6083 25.9816 23.671C25.9816 23.6868 25.9816 23.6946 25.9729 23.7032C25.965 23.726 25.9501 23.7496 25.9414 23.7731C25.7295 24.2125 25.2988 24.5193 24.7878 24.5508C24.7565 24.558 24.733 24.558 24.7023 24.558H27.6601C27.8807 24.558 28.0527 24.386 28.0527 24.1654V21.184C28.0527 21.3716 28.0141 21.56 27.9349 21.7248Z" fill="#FF8D7D"/>
<path d="M17.4413 18.5224C17.4413 18.7422 17.2679 18.9149 17.049 18.9149H14.0894C13.8698 18.9149 13.6971 18.7422 13.6971 18.5224C13.6971 18.3035 13.8698 18.1301 14.0894 18.1301H17.049C17.2679 18.1301 17.4413 18.3035 17.4413 18.5224Z" fill="#FFFADD"/>
<path d="M20.5327 18.5224C20.5327 18.7422 20.353 18.9149 20.1403 18.9149H18.9946C18.7748 18.9149 18.6021 18.7422 18.6021 18.5224C18.6021 18.3035 18.7748 18.1301 18.9946 18.1301H20.1403C20.353 18.1301 20.5327 18.3035 20.5327 18.5224Z" fill="#FFFADD"/>
<path d="M21.7709 14.1046V14.3485C21.7474 14.6617 21.614 14.9599 21.3942 15.1797L21.3863 15.1876C21.2609 15.3053 21.1117 15.4072 20.9548 15.4701C20.6252 15.5956 20.2562 15.5956 19.9266 15.4701C19.7618 15.4072 19.6128 15.3053 19.4871 15.1797C19.4244 15.1169 19.3694 15.0463 19.3223 14.9757C19.2752 14.8971 19.2282 14.8186 19.1967 14.741C19.1104 14.5284 19.079 14.2929 19.1025 14.0652C19.1104 14.0104 19.1184 13.9475 19.134 13.8848C19.1967 13.9162 19.2596 13.9475 19.3223 13.971C19.393 14.0104 19.4557 14.0339 19.5028 14.0503C19.644 14.1046 19.7776 14.1437 19.8874 14.1673C19.9424 14.1752 19.9895 14.1837 20.0366 14.1908C20.3347 14.2535 20.5781 14.2615 20.68 14.2615H20.7271C20.7821 14.2615 20.8292 14.2466 20.8683 14.23C20.9154 14.2065 20.9548 14.1837 20.986 14.1524V14.2223C20.986 14.1987 20.986 14.1752 20.994 14.1437C21.0567 14.081 21.096 13.9946 21.1038 13.8927C21.1038 13.8927 21.1117 13.8141 21.1038 13.6649C21.1038 13.6101 21.096 13.5395 21.0881 13.4689L21.0725 13.3675C21.0646 13.3361 21.0567 13.3041 21.049 13.257C21.041 13.1784 21.0254 13.0922 20.994 13.0065C21.0331 13.0215 21.0802 13.0379 21.1196 13.0607C21.2059 13.1078 21.2921 13.1784 21.3863 13.2655L21.3942 13.2726C21.5198 13.399 21.614 13.5081 21.6767 13.6729C21.6767 13.6808 21.6688 13.6808 21.6767 13.6885C21.6688 13.6964 21.6688 13.6964 21.6767 13.7043C21.7317 13.8298 21.763 13.9633 21.7709 14.1046Z" fill="#FF8D7D"/>
<path d="M21.7716 14.2852V14.3167C21.7716 14.308 21.7795 14.308 21.7795 14.3008C21.7716 14.2931 21.7716 14.2931 21.7716 14.2852ZM21.6538 13.0688C21.6067 13.0845 21.5676 13.1159 21.5282 13.1472C21.4811 13.1786 21.434 13.2178 21.3869 13.2649L21.3949 13.2728C21.5205 13.3984 21.6147 13.5083 21.6774 13.6731C21.6853 13.5546 21.693 13.4062 21.7245 13.225C21.748 13.1308 21.7636 13.0602 21.7795 12.9973C21.7324 13.0138 21.693 13.0374 21.6538 13.0688ZM21.7716 14.1204V14.1675C21.7716 14.1596 21.7795 14.1518 21.7795 14.1432H21.7872C21.7795 14.136 21.7716 14.1283 21.7716 14.1204ZM20.9867 14.1518V14.2225C20.9867 14.1989 20.9867 14.1745 20.9946 14.1432L20.9867 14.1518Z" fill="#FE624A"/>
<path d="M23.5619 14.763C23.507 14.912 23.4129 15.0532 23.2865 15.1789C23.0362 15.4309 22.6979 15.5712 22.3368 15.5712C21.9757 15.5712 21.6471 15.4309 21.3871 15.1868L21.3951 15.1789C21.6156 14.9591 21.7482 14.6609 21.7725 14.3479V14.3164C21.7725 14.3077 21.7797 14.3077 21.7797 14.2998C21.7797 14.2607 21.7797 14.2222 21.7725 14.1908V14.1665C21.7725 14.1586 21.7797 14.1516 21.7797 14.1429H21.7874C21.8188 14.1831 21.859 14.2057 21.9061 14.2292C21.9445 14.2458 21.9923 14.2607 22.0464 14.2607H22.1021C22.2112 14.2607 22.4476 14.2537 22.7457 14.1979C22.7849 14.1908 22.8312 14.1744 22.8791 14.1665C22.9341 14.1516 22.9891 14.135 23.0439 14.1201C23.0674 14.1201 23.0833 14.1115 23.0989 14.1038L23.255 14.0574C23.3492 14.0182 23.46 13.9781 23.5532 13.9241C23.5846 13.9075 23.6089 13.8926 23.6404 13.876C23.7189 14.1744 23.6875 14.4882 23.5619 14.763Z" fill="#FE624A"/>
<path d="M21.1033 13.8927C21.0947 13.9946 21.0555 14.0801 20.9926 14.143L20.9856 14.1517C20.9542 14.183 20.915 14.2058 20.8671 14.2301C20.8278 14.2459 20.7816 14.2615 20.7266 14.2615H20.6795C20.5775 14.2615 20.3343 14.2536 20.0359 14.1909C19.9889 14.183 19.9418 14.1743 19.886 14.1673C19.777 14.143 19.6436 14.1046 19.5023 14.0496C19.4545 14.034 19.3916 14.0095 19.321 13.9711C19.2582 13.9468 19.1955 13.9153 19.1326 13.8841C19.1326 13.8761 19.1326 13.8692 19.1413 13.8534L19.11 13.8692H19.1013C18.5127 13.5544 17.7514 12.8568 17.8535 11.3735C17.8699 11.1852 18.027 11.0281 18.2231 11.0124C19.6436 10.8947 20.656 11.6167 20.9856 12.9745C20.9856 12.9822 20.9926 12.9971 20.9926 13.0058C21.024 13.0913 21.0406 13.1785 21.0483 13.2561C21.0555 13.3041 21.0632 13.3354 21.0719 13.3668L21.0868 13.4689C21.0947 13.5396 21.1033 13.6102 21.1033 13.665C21.1112 13.8134 21.1033 13.8927 21.1033 13.8927Z" fill="#AB9A17"/>
<path d="M23.7127 13.8454C23.6901 13.8541 23.6656 13.869 23.6421 13.8769C23.6108 13.8933 23.5873 13.9081 23.5558 13.9247C23.4624 13.9788 23.3518 14.0189 23.2577 14.0581L23.1015 14.1044C23.0849 14.1123 23.0701 14.121 23.0458 14.121C22.9908 14.1359 22.9367 14.1522 22.881 14.1671C22.8339 14.175 22.7868 14.1907 22.7484 14.1986C22.45 14.2543 22.2138 14.2613 22.104 14.2613H22.049C21.9949 14.2613 21.9469 14.2464 21.9077 14.23C21.8614 14.2065 21.8215 14.1837 21.79 14.1436C21.7821 14.1359 21.7744 14.128 21.7744 14.121V14.1044C21.7672 13.9631 21.735 13.8298 21.6802 13.7042V13.6885C21.6723 13.6806 21.6802 13.6806 21.6802 13.6727C21.6879 13.555 21.6966 13.406 21.7281 13.2254C21.7508 13.1312 21.7672 13.0606 21.7821 12.9978C21.7821 12.9751 21.79 12.9508 21.7987 12.9272C21.8301 12.8016 21.8763 12.6603 21.9392 12.5034C22.3873 11.4519 23.3204 10.926 24.5526 11.0132C24.7486 11.0281 24.9065 11.178 24.9214 11.3741C25.0391 12.833 24.2857 13.5324 23.7127 13.8454Z" fill="#ECD232"/>
<path d="M23.2711 16.6545V16.7879C23.2711 17.2746 22.8788 17.6669 22.3923 17.6669H20.3831C19.8966 17.6669 19.4954 17.2746 19.4954 16.7879V16.6545C19.4954 16.168 19.8966 15.7755 20.3831 15.7755H22.3923C22.8788 15.7755 23.2711 16.168 23.2711 16.6545Z" fill="#FFFADD"/>
<path d="M26.7769 20.0213C26.7769 20.7276 26.2047 21.2927 25.5055 21.2927C24.8071 21.2927 24.2341 20.7276 24.2341 20.0213C24.2341 19.3229 24.8071 18.7586 25.5055 18.7586C26.2047 18.7586 26.7769 19.3229 26.7769 20.0213Z" fill="#FFFADD"/>
</svg>
