<svg width="40" height="40" viewBox="0 0 40 40" fill="none" xmlns="http://www.w3.org/2000/svg">
<rect width="40" height="40" rx="20" fill="white"/>
<path d="M14.2422 23.8782V24.1335C14.2325 24.0941 14.2325 24.055 14.2325 24.0057C14.2325 23.9666 14.2325 23.9174 14.2422 23.8782Z" fill="#333333"/>
<path d="M30.4248 17.112C30.4248 17.162 30.4248 17.2013 30.4149 17.2503V16.9744C30.4248 17.0236 30.4248 17.0627 30.4248 17.112Z" fill="#333333"/>
<path d="M24.7204 20.3531H24.7098C24.7794 20.4316 24.8373 20.5103 24.8972 20.5878C24.8373 20.5103 24.7794 20.4316 24.7204 20.3531Z" fill="#333333"/>
<path d="M29.7154 19.8817C28.9191 21.3937 27.516 22.4641 25.8664 22.848C25.8369 22.6998 25.8075 22.5624 25.7584 22.4151C25.7485 22.3856 25.7386 22.3463 25.7278 22.3168C25.6995 22.1794 25.6602 22.0321 25.6013 21.8945C25.5619 21.7866 25.5129 21.6687 25.4639 21.5608C25.4038 21.443 25.346 21.3252 25.2763 21.2083C25.2369 21.119 25.179 21.0306 25.1299 20.9422C25.0515 20.8244 24.9727 20.6967 24.8943 20.5887C24.8344 20.5112 24.7764 20.4325 24.7175 20.3531C24.7175 20.3432 24.7175 20.3432 24.7274 20.3432C24.7764 20.2941 24.8255 20.2449 24.8735 20.1872C24.9129 20.137 24.9433 20.0879 24.9727 20.029C24.9826 20.0201 24.9914 19.9996 24.9914 19.9897C25.022 19.9209 25.0515 19.8523 25.0611 19.7835C25.0797 19.705 25.0906 19.6263 25.0906 19.5478V17.3779C25.0906 17.3286 25.1191 17.2895 25.1693 17.2895H25.8555C25.9057 17.2895 25.934 17.3286 25.934 17.3779V18.6749C25.934 19.2532 26.4065 19.7246 27.0828 19.7246C27.6732 19.7246 28.1433 19.2532 28.1433 18.6749V18.2625C28.1433 18.1732 28.3014 18.1732 28.3014 18.2625V18.9782C28.3014 19.0569 28.3104 19.1354 28.3309 19.2052C28.3408 19.2836 28.3604 19.3416 28.3997 19.4114C28.4487 19.5292 28.5166 19.6263 28.6059 19.7147C28.7926 19.9112 29.0468 20.029 29.3522 20.0387C29.4896 20.0387 29.6162 19.981 29.7154 19.8817Z" fill="#FFE082"/>
<path d="M25.9961 24.0061C25.9961 27.2464 23.3635 29.8877 20.1244 29.8877C17.9346 29.8877 15.9511 28.6995 14.9495 26.7652C15.0379 26.8635 15.1656 26.9224 15.3414 26.9224C15.5976 26.9125 15.8323 26.8142 16.01 26.6573C16.117 26.559 16.2054 26.4313 16.2654 26.2939C16.3046 26.2251 16.3232 26.1662 16.334 26.0877C16.3538 26.0189 16.3625 25.9404 16.3625 25.8619V25.145C16.3625 25.0666 16.5108 25.0371 16.5108 25.145V25.5575C16.5108 26.1367 16.992 26.608 17.6695 26.608C18.2478 26.608 18.7201 26.1367 18.7201 25.5575V24.2613C18.7201 24.222 18.7594 24.1829 18.8084 24.1829H19.4959C19.5352 24.1829 19.5743 24.222 19.5743 24.2613V26.4313C19.5743 27.0204 20.0447 27.4917 20.624 27.4917H20.9197C21.5089 27.4917 21.9802 27.0204 21.9802 26.4313V25.9109C21.9802 25.8815 22.0085 25.8421 22.0587 25.8421H22.588C23.178 25.8421 23.6593 25.3708 23.6593 24.7817V24.2123C23.6593 23.8588 23.9439 23.5642 24.2974 23.5642C24.4153 23.5642 24.5232 23.5543 24.641 23.5249C24.7588 23.5053 24.867 23.466 24.9749 23.417C25.2302 23.3088 25.4562 23.1224 25.6122 22.8964C25.6515 22.8474 25.6819 22.7885 25.7114 22.7394C25.7507 22.6607 25.7703 22.5823 25.7703 22.5038C25.7703 22.484 25.7703 22.4449 25.7604 22.4154C25.8097 22.5627 25.8391 22.7001 25.8686 22.8474C25.9569 23.2402 25.9961 23.6232 25.9961 24.0061Z" fill="#FFE082"/>
<path d="M14.7608 21.5605C14.9081 21.2365 15.1053 20.9233 15.3007 20.6277C15.0945 20.9233 14.9081 21.2365 14.7608 21.5605ZM14.2402 24.1332V24.2117C14.2402 24.2312 14.2402 24.251 14.2501 24.2706C14.2402 24.2312 14.2402 24.1822 14.2402 24.1332Z" fill="#333333"/>
<path d="M25.7677 22.5035C25.7677 22.582 25.7482 22.6604 25.7088 22.7391C25.6794 22.7882 25.6499 22.848 25.6108 22.8961C25.4546 23.1221 25.2276 23.3085 24.9724 23.4176C24.8645 23.4657 24.7575 23.506 24.6396 23.5246C24.5209 23.5541 24.4127 23.564 24.2949 23.564C23.9423 23.564 23.6577 23.8585 23.6577 24.212V24.7814C23.6577 25.3705 23.1755 25.8418 22.5863 25.8418H22.0571C22.0071 25.8418 21.9786 25.8812 21.9786 25.9116V26.431C21.9786 27.0213 21.5063 27.4915 20.9181 27.4915H20.6226C20.0431 27.4915 19.5718 27.0213 19.5718 26.431L19.572 24.261C19.5718 24.2217 19.5327 24.1826 19.4933 24.1826H18.8061C18.7569 24.1826 18.7175 24.2217 18.7175 24.261L18.7178 25.5572C18.7175 26.1364 18.2464 26.6089 17.667 26.6089C16.9904 26.6089 16.5085 26.1364 16.5085 25.5572L16.5082 25.1448C16.5082 25.0368 16.3609 25.0663 16.3609 25.1448V25.8616C16.3609 25.9401 16.3513 26.0186 16.3327 26.0874C16.3218 26.1659 16.302 26.2248 16.2629 26.2936C16.204 26.431 16.1156 26.5587 16.0086 26.657C15.8307 26.8151 15.5962 26.9122 15.3398 26.9221C15.1631 26.9221 15.0353 26.8632 14.947 26.7649C14.9175 26.7364 14.8989 26.6973 14.8784 26.657V26.648C14.4964 25.9008 14.2794 25.1054 14.2508 24.2709C14.2402 24.2316 14.2402 24.1826 14.2402 24.1333V23.8192C14.2402 23.7907 14.2402 23.7702 14.2508 23.7407C14.2598 23.4176 14.2989 23.1023 14.3687 22.7981C14.3972 22.6213 14.4474 22.4446 14.4964 22.2787C14.5358 22.1401 14.5838 22.0027 14.6427 21.8554C14.6819 21.7572 14.7212 21.6601 14.7606 21.5608C14.9079 21.2368 15.1051 20.9236 15.3005 20.6279C15.3113 20.6182 15.3113 20.6083 15.3203 20.5996C15.6353 20.1664 16.0086 19.7748 16.4198 19.4399C16.6949 19.2238 16.9795 19.0275 17.2939 18.8508C17.4421 18.7721 17.5993 18.6936 17.7553 18.6248C17.933 18.5562 18.0992 18.4874 18.257 18.4384C18.315 18.4186 18.364 18.399 18.4241 18.3794C18.5507 18.3401 18.6695 18.3106 18.7873 18.2812C18.8158 18.2715 18.8453 18.2715 18.8747 18.2626C19.0328 18.2322 19.1792 18.2126 19.3265 18.1928C19.4738 18.1732 19.621 18.1537 19.7584 18.1447H19.7693C19.9646 18.1339 20.1708 18.1339 20.377 18.1447C20.4664 18.1447 20.5637 18.1537 20.6617 18.1633C20.809 18.1732 20.9575 18.1928 21.1036 18.2232C21.9482 18.3599 22.7435 18.675 23.4515 19.1748C23.5191 19.2238 23.5879 19.2728 23.6577 19.3221C23.6664 19.3329 23.6862 19.3416 23.697 19.3515C23.7646 19.4006 23.8335 19.4595 23.9032 19.5292C23.9423 19.5478 23.9708 19.5782 24.0102 19.6176C24.0592 19.657 24.1094 19.705 24.1575 19.754C24.3547 19.9416 24.5404 20.137 24.7073 20.354C24.7761 20.4325 24.835 20.5112 24.8939 20.5888C24.9724 20.6967 25.0521 20.8244 25.1305 20.9422C25.1786 21.0306 25.2375 21.119 25.2769 21.2083C25.3454 21.3252 25.4044 21.443 25.4633 21.5608C25.5125 21.6688 25.5615 21.7876 25.6009 21.8945C25.6608 22.0331 25.7001 22.1795 25.7284 22.3178C25.7392 22.3463 25.7482 22.3857 25.7579 22.4151C25.7677 22.4446 25.7677 22.4837 25.7677 22.5035Z" fill="#FE624A"/>
<path d="M15.3219 20.5987C15.312 20.6083 15.312 20.6182 15.3014 20.627C15.0961 20.9227 14.9095 21.2359 14.7622 21.5599C14.7229 21.6591 14.6837 21.7572 14.6444 21.8545C14.5855 22.0027 14.5364 22.1392 14.4971 22.2777C14.4481 22.4446 14.3988 22.6213 14.3694 22.7971C11.8066 22.1305 10 19.8229 10 17.1119C10 16.6021 10.0785 16.0719 10.2357 15.5221C10.2159 15.639 10.2258 15.7479 10.2847 15.856C10.4515 16.1801 10.7265 16.4145 11.0605 16.5432C11.0701 16.5531 11.089 16.563 11.1095 16.563C11.188 16.5925 11.2667 16.6207 11.3451 16.6316C11.4531 16.6601 11.5709 16.6709 11.6986 16.6709C12.0422 16.6709 12.3368 16.9754 12.3368 17.3289V17.8982C12.3368 18.4777 12.818 18.9479 13.4072 18.9479H13.9374C13.9864 18.9479 14.0159 18.9785 14.0159 19.0176V19.5479C14.0159 20.1274 14.4862 20.5987 15.0763 20.5987H15.3219Z" fill="#FFE082"/>
<path d="M20.2125 13.1744C20.0662 13.3217 19.9384 13.4798 19.8206 13.6457C19.7421 13.744 19.6724 13.8519 19.6048 13.9601C19.4565 14.1858 19.3297 14.4224 19.211 14.668C19.0931 14.9136 18.9852 15.1874 18.9065 15.4829C18.7505 16.0131 18.6718 16.5719 18.6718 17.112C18.6718 17.3682 18.6906 17.6225 18.7201 17.8593C18.7298 17.9958 18.7602 18.1331 18.7896 18.2804C18.6718 18.3099 18.554 18.3393 18.4265 18.3787C18.3666 18.3983 18.3173 18.4178 18.2594 18.4376C18.1024 18.4866 17.9353 18.5554 17.7577 18.624C17.6017 18.6928 17.4445 18.7713 17.2962 18.85C17.2873 18.792 17.2776 18.7322 17.2776 18.6742V17.3771C17.2776 17.3279 17.2383 17.2888 17.1883 17.2888H16.5018C16.4519 17.2888 16.4234 17.3279 16.4234 17.3771V19.4392C16.011 19.774 15.6377 20.1657 15.3235 20.5988H15.078C14.4879 20.5988 14.0166 20.1264 14.0166 19.5471V19.0169C14.0166 18.9775 13.9871 18.9481 13.9381 18.9481H13.4079C12.8197 18.9481 12.3375 18.4767 12.3375 17.8984V17.3279C12.3375 16.9744 12.0439 16.6711 11.6993 16.6711C11.5716 16.6711 11.4538 16.6603 11.3468 16.6318C11.2683 16.6209 11.1896 16.5915 11.1102 16.562C11.0906 16.562 11.0708 16.5523 11.0621 16.5434C10.7282 16.4147 10.4532 16.1802 10.2863 15.855C10.2265 15.7471 10.2166 15.6392 10.2373 15.5223V15.5114C10.2373 15.5015 10.2373 15.4919 10.247 15.4829C10.3148 15.1982 10.414 14.9223 10.5406 14.668C11.4832 12.5951 13.5747 11.25 15.8724 11.25C17.5229 11.25 19.1136 11.957 20.2125 13.1744Z" fill="#FE624A"/>
<path d="M17.2959 18.8507C16.9817 19.0275 16.6971 19.2238 16.4221 19.4399V17.3779C16.4221 17.3286 16.4515 17.2895 16.5005 17.2895H17.188C17.237 17.2895 17.2763 17.3286 17.2763 17.3779V18.674C17.2763 18.7329 17.2862 18.7918 17.2959 18.8507Z" fill="#FFE082"/>
<path d="M29.9239 17.7902H29.8845C29.6293 17.7705 29.433 17.5546 29.433 17.2991C29.4231 17.6625 29.3729 18.0061 29.2855 18.3499L29.2857 18.9782C29.2855 19.0176 29.2944 19.0569 29.3642 19.0569C29.531 19.0666 29.6783 19.155 29.7667 19.2926C29.8551 19.4399 29.8551 19.6166 29.7853 19.7639C29.7667 19.803 29.7462 19.8424 29.7177 19.8817C29.7462 19.8523 29.7766 19.8129 29.7961 19.7745C30.1694 19.0176 30.3853 18.2222 30.4051 17.3778C30.3657 17.6135 30.1595 17.7902 29.9239 17.7902Z" fill="#FFE082"/>
<path d="M30.413 16.9167V17.2996C30.413 17.3291 30.413 17.3477 30.4034 17.3781C30.364 17.6137 30.1578 17.7905 29.9222 17.7905H29.8828C29.6276 17.7709 29.4313 17.5539 29.4313 17.2996C29.4214 17.6628 29.3712 18.0054 29.284 18.3502V18.9787C29.284 19.0178 29.2927 19.0572 29.3625 19.0572C29.5293 19.0659 29.6766 19.1543 29.765 19.2928C29.8534 19.4392 29.8534 19.6169 29.7836 19.7632C29.765 19.8023 29.7445 19.8417 29.716 19.882C29.6168 19.9802 29.4902 20.0392 29.3526 20.0392C29.0472 20.0293 28.7929 19.9114 28.6065 19.7151C28.5169 19.6267 28.4493 19.5285 28.4003 19.4106C28.3609 19.3418 28.3414 19.2829 28.3315 19.2044C28.3107 19.1356 28.302 19.0572 28.302 18.9787V18.2618C28.302 18.1725 28.1439 18.1725 28.1439 18.2618V18.6742C28.1439 19.2535 27.6735 19.7238 27.0834 19.7238C26.4068 19.7238 25.9346 19.2535 25.9346 18.6742V17.3781C25.9346 17.3291 25.9061 17.2897 25.8561 17.2897H25.1696C25.1197 17.2897 25.0912 17.3291 25.0912 17.3781V19.548C25.0912 19.6267 25.0803 19.7052 25.0617 19.7837C25.0518 19.8516 25.0223 19.9213 24.9919 19.9899C24.9919 19.9998 24.9832 20.0194 24.9733 20.0293C24.9439 20.0872 24.9135 20.1362 24.8741 20.1864C24.826 20.2454 24.777 20.2934 24.7278 20.3424C24.7181 20.3424 24.7181 20.3424 24.7181 20.3533H24.7073C24.5414 20.1362 24.3547 19.9409 24.1584 19.7542C24.1092 19.7052 24.0592 19.6562 24.0099 19.6169C23.9708 19.5775 23.9423 19.548 23.903 19.5285C23.8344 19.4597 23.7646 19.3998 23.6968 19.3508C23.6859 19.3418 23.6673 19.3322 23.6576 19.3213V19.0178C23.6576 18.4386 23.1863 17.9663 22.6068 17.9663H22.0669C22.0276 17.9663 21.9882 17.9477 21.9882 17.8984V17.3291C21.9882 16.9449 21.8499 16.5719 21.6043 16.2872C21.4679 16.1114 21.2223 16.0624 21.0161 16.1595C20.8189 16.2587 20.7119 16.4748 20.751 16.6907C20.7609 16.7694 20.7708 16.8479 20.7708 16.9263V17.2996C20.7609 17.4469 20.751 17.5843 20.7315 17.7316C20.7216 17.8779 20.6921 18.0262 20.6617 18.1635C20.5646 18.1539 20.4663 18.144 20.377 18.144C20.1708 18.1331 19.9646 18.1331 19.7693 18.144H19.7584C19.622 18.1539 19.4735 18.1725 19.3274 18.193C19.1801 18.2116 19.0328 18.2324 18.8756 18.2618C18.8462 18.2717 18.8158 18.2717 18.7873 18.2814C18.7578 18.1331 18.7283 17.9967 18.7185 17.8593C18.689 17.6236 18.6694 17.3682 18.6694 17.112C18.6694 16.5719 18.7479 16.0131 18.9042 15.4829C18.9826 15.1874 19.0917 14.9136 19.2096 14.668C19.3274 14.4224 19.4549 14.1868 19.6022 13.9601C19.671 13.8531 19.7398 13.7449 19.8183 13.6469C19.9361 13.4798 20.0638 13.3229 20.2099 13.1744C21.301 11.957 22.8818 11.25 24.5414 11.25C26.8291 11.25 28.9305 12.5961 29.8828 14.6779C30.196 15.3446 30.3836 16.0919 30.4034 16.8479C30.413 16.8665 30.413 16.8959 30.413 16.9167Z" fill="#FF8D7D"/>
<path d="M23.6581 19.0172V19.3216C23.5895 19.2724 23.5197 19.2234 23.4519 19.1743C22.7439 18.6736 21.9495 18.3592 21.1042 18.2218C20.9579 18.1923 20.8106 18.1728 20.6624 18.1629C20.6918 18.0255 20.7222 17.8782 20.7321 17.7309C20.7517 17.5836 20.7616 17.446 20.7712 17.2987V16.9257C20.7712 16.8472 20.7616 16.7685 20.7517 16.69C20.7123 16.4739 20.8195 16.2581 21.0168 16.1598C21.223 16.0615 21.4685 16.1108 21.605 16.2875C21.8505 16.5722 21.9889 16.9452 21.9889 17.3282V17.8978C21.9889 17.9468 22.0282 17.9666 22.0674 17.9666H22.6075C23.1867 17.9666 23.6581 18.4379 23.6581 19.0172Z" fill="#FFE082"/>
</svg>
