<svg width="40" height="40" viewBox="0 0 40 40" fill="none" xmlns="http://www.w3.org/2000/svg">
<rect width="40" height="40" rx="20" fill="white"/>
<path d="M26.8273 22.8527H23.7322V21.2681H26.8273V22.8527ZM22.8055 22.8527H19.7106V21.2681H22.8055V22.8527ZM18.7838 22.8527H15.6887V21.2681H18.7838V22.8527ZM14.7528 22.8527H11.6577V21.2681H14.7528V22.8527ZM27.2906 20.3416H11.1945C10.9443 20.3416 10.7312 20.5453 10.7312 20.8048V23.0473C10.7312 23.1863 10.7403 23.3068 10.7497 23.4365V23.4458C10.9536 25.9756 13.0755 27.9678 15.6518 27.9678H22.8333C25.4095 27.9678 27.5314 25.9756 27.7354 23.4458V23.4365C27.7447 23.3068 27.7538 23.1863 27.7538 23.0473V20.8048C27.7538 20.5453 27.5501 20.3416 27.2906 20.3416Z" fill="#E78E22"/>
<path d="M14.754 21.2683H11.6589V22.8529H14.754V21.2683Z" fill="#FFE082"/>
<path d="M18.7848 21.2683H15.6896V22.8529H18.7848V21.2683Z" fill="#FFE082"/>
<path d="M22.8083 21.2683H19.7131V22.8529H22.8083V21.2683Z" fill="#FFE082"/>
<path d="M26.8281 21.2683H23.733V22.8529H26.8281V21.2683Z" fill="#FFE082"/>
<path d="M22.4835 27.9674V28.996C22.4835 29.2565 22.2795 29.4593 22.02 29.4593H16.4694C16.2192 29.4593 16.0061 29.2565 16.0061 28.996V27.9674H22.4835Z" fill="#B66C0C"/>
<path d="M13.9385 11.9554C13.9294 12.0016 13.92 12.0388 13.92 12.085V20.3416H13.9107V12.085C13.9107 12.0563 13.9107 12.0294 13.92 12.011C13.92 11.9925 13.92 11.9738 13.9385 11.9554Z" fill="#333333"/>
<path d="M13.9586 11.8908V11.9092C13.9493 11.9186 13.9493 11.9277 13.9493 11.937C13.9399 11.9464 13.9399 11.9555 13.9399 11.9555C13.9308 11.937 13.9399 11.9277 13.9493 11.9092C13.9493 11.9092 13.9493 11.8999 13.9586 11.8908Z" fill="#333333"/>
<path d="M14.0414 11.7698C14.0136 11.8069 13.9858 11.8439 13.958 11.8903C13.958 11.881 13.958 11.8708 13.9673 11.8625C13.9858 11.8254 14.0136 11.7976 14.0414 11.7698Z" fill="#333333"/>
<path d="M14.4948 11.6309C14.4577 11.6218 14.4206 11.6218 14.3836 11.6218H12.6601C12.6136 11.6218 12.558 11.6309 12.5211 11.6403C12.5395 11.6309 12.5489 11.6218 12.5673 11.6218C12.5951 11.6125 12.6323 11.6125 12.6601 11.6125H14.3836C14.4114 11.6125 14.4484 11.6125 14.4762 11.6218C14.4855 11.6218 14.4855 11.6218 14.4948 11.6309Z" fill="#333333"/>
<path d="M13.9385 11.9554C13.9294 12.0016 13.92 12.0388 13.92 12.085V20.3416H13.9107V12.085C13.9107 12.0563 13.9107 12.0294 13.92 12.011C13.92 11.9925 13.92 11.9738 13.9385 11.9554Z" fill="#333333"/>
<path d="M14.0414 11.7698C14.0136 11.8069 13.9858 11.8439 13.958 11.8903C13.958 11.881 13.958 11.8708 13.9673 11.8625C13.9858 11.8254 14.0136 11.7976 14.0414 11.7698Z" fill="#333333"/>
<path d="M17.3577 20.3325H16.57V20.3418H17.3577V20.3325Z" fill="#333333"/>
<path d="M17.8198 10C17.5605 10 17.3566 10.2037 17.3566 10.4633V20.3322H16.5688V20.3415H15.6423V10.4633C15.6423 10.2037 15.8461 10 16.1056 10H17.8198Z" fill="#FFB84D"/>
<path d="M13.948 11.9087C13.9389 11.9283 13.9295 11.9365 13.9389 11.9561C13.9389 11.9561 13.9389 11.9458 13.948 11.9365C13.948 11.9283 13.948 11.9189 13.9573 11.9087V11.8902C13.948 11.8996 13.948 11.9087 13.948 11.9087ZM13.9202 12.0108C13.9111 12.0301 13.9111 12.057 13.9111 12.0848H13.9202C13.9202 12.0395 13.9295 12.0023 13.9389 11.9561C13.9202 11.9736 13.9202 11.9932 13.9202 12.0108ZM13.9675 11.8624C13.9573 11.8718 13.9573 11.882 13.9573 11.8902C13.9851 11.8449 14.0129 11.8077 14.0407 11.7708C14.0129 11.7986 13.9851 11.8253 13.9675 11.8624ZM13.948 11.9087C13.9389 11.9283 13.9295 11.9365 13.9389 11.9561C13.9389 11.9561 13.9389 11.9458 13.948 11.9365C13.948 11.9283 13.948 11.9189 13.9573 11.9087V11.8902C13.948 11.8996 13.948 11.9087 13.948 11.9087ZM13.9202 12.0108C13.9111 12.0301 13.9111 12.057 13.9111 12.0848H13.9202C13.9202 12.0395 13.9295 12.0023 13.9389 11.9561C13.9202 11.9736 13.9202 11.9932 13.9202 12.0108ZM13.9675 11.8624C13.9573 11.8718 13.9573 11.882 13.9573 11.8902C13.9851 11.8449 14.0129 11.8077 14.0407 11.7708C14.0129 11.7986 13.9851 11.8253 13.9675 11.8624ZM12.5673 11.6216C12.5489 11.6216 12.5395 11.6307 12.5211 11.64C12.558 11.6307 12.6136 11.6216 12.6601 11.6216H12.5673ZM13.9202 12.0108C13.9111 12.0301 13.9111 12.057 13.9111 12.0848V12.5481H13.9202V12.0848C13.9202 12.0395 13.9295 12.0023 13.9389 11.9561C13.9202 11.9736 13.9202 11.9932 13.9202 12.0108ZM13.948 11.9087C13.9389 11.9283 13.9295 11.9365 13.9389 11.9561C13.9389 11.9561 13.9389 11.9458 13.948 11.9365C13.948 11.9283 13.948 11.9189 13.9573 11.9087V11.8902C13.948 11.8996 13.948 11.9087 13.948 11.9087ZM13.9675 11.8624C13.9573 11.8718 13.9573 11.882 13.9573 11.8902C13.9851 11.8449 14.0129 11.8077 14.0407 11.7708C14.0129 11.7986 13.9851 11.8253 13.9675 11.8624ZM14.4762 11.6216H14.3836C14.4206 11.6216 14.4577 11.6216 14.4948 11.6307C14.4855 11.6216 14.4855 11.6216 14.4762 11.6216ZM13.948 11.9087C13.9389 11.9283 13.9295 11.9365 13.9389 11.9561C13.9389 11.9561 13.9389 11.9458 13.948 11.9365C13.948 11.9283 13.948 11.9189 13.9573 11.9087V11.8902C13.948 11.8996 13.948 11.9087 13.948 11.9087ZM13.9202 12.0108C13.9111 12.0301 13.9111 12.057 13.9111 12.0848H13.9202C13.9202 12.0395 13.9295 12.0023 13.9389 11.9561C13.9202 11.9736 13.9202 11.9932 13.9202 12.0108ZM13.9675 11.8624C13.9573 11.8718 13.9573 11.882 13.9573 11.8902C13.9851 11.8449 14.0129 11.8077 14.0407 11.7708C14.0129 11.7986 13.9851 11.8253 13.9675 11.8624Z" fill="#333333"/>
<path d="M18.2834 20.3418H19.0803V20.3325H18.2834V20.3418ZM18.2834 20.3418H19.0803V20.3325H18.2834V20.3418ZM18.2834 20.3418H19.0803V20.3325H18.2834V20.3418ZM18.2834 20.3418H19.0803V20.3325H18.2834V20.3418ZM18.2834 20.3418H19.0803V20.3325H18.2834V20.3418ZM18.2834 20.3418H19.0803V20.3325H18.2834V20.3418ZM18.2834 20.3418H19.0803V20.3325H18.2834V20.3418ZM18.2834 20.3418H19.0803V20.3325H18.2834V20.3418ZM18.2834 20.3418H19.0803V20.3325H18.2834V20.3418ZM18.2834 20.3418H19.0803V20.3325H18.2834V20.3418ZM18.2834 20.3418H19.0803V20.3325H18.2834V20.3418ZM18.2834 20.3418H19.0803V20.3325H18.2834V20.3418ZM18.2834 20.3418H19.0803V20.3325H18.2834V20.3418ZM18.2834 20.3418H19.0803V20.3325H18.2834V20.3418Z" fill="#333333"/>
<path d="M19.5463 10C19.2867 10 19.083 10.2037 19.083 10.4633V20.3322H18.2859V20.3415H17.3594V10.4633C17.3594 10.2037 17.5632 10 17.8227 10H19.5463Z" fill="#FFE082"/>
<path d="M29.4238 10.4633V12.085H21.7233C21.7233 11.8254 21.5196 11.6215 21.26 11.6215H20.009V10.4633C20.009 10.2037 19.8051 10 19.5458 10H28.9606C29.2201 10 29.4238 10.2037 29.4238 10.4633Z" fill="#B66C0C"/>
<path d="M20.0067 10.4633V20.3415H19.0801V10.4633C19.0801 10.2037 19.2839 10 19.5434 10C19.8029 10 20.0067 10.2037 20.0067 10.4633Z" fill="#FFB84D"/>
<path d="M13.9107 20.3415H13.92V12.5482H13.9107V20.3415ZM13.9107 20.3415H13.92V12.5482H13.9107V20.3415ZM13.9107 20.3415H13.92V12.5482H13.9107V20.3415ZM13.9107 20.3415H13.92V12.5482H13.9107V20.3415ZM13.9663 11.8625C13.9572 11.8717 13.9572 11.881 13.9572 11.8903C13.985 11.8439 14.0128 11.8069 14.0406 11.7698C14.0128 11.7976 13.985 11.8254 13.9663 11.8625ZM13.9478 11.9088C13.9385 11.9273 13.9294 11.9366 13.9385 11.9551C13.9385 11.9551 13.9385 11.9459 13.9478 11.9366C13.9478 11.9273 13.9478 11.9181 13.9572 11.9088V11.8903C13.9478 11.8995 13.9478 11.9088 13.9478 11.9088ZM13.92 12.0107C13.9107 12.0293 13.9107 12.0571 13.9107 12.0849V20.3415H13.92V12.0849C13.92 12.0385 13.9294 12.0015 13.9385 11.9551C13.92 11.9737 13.92 11.9922 13.92 12.0107ZM13.9107 20.3415H13.92V12.5482H13.9107V20.3415ZM13.9107 20.3415H13.92V12.5482H13.9107V20.3415ZM13.9107 20.3415H13.92V12.5482H13.9107V20.3415ZM13.9107 20.3415H13.92V12.5482H13.9107V20.3415ZM13.9107 20.3415H13.92V12.5482H13.9107V20.3415Z" fill="#333333"/>
<path d="M12.5675 11.6216C12.5489 11.6216 12.5397 11.6309 12.5211 11.6403C12.5582 11.6309 12.6138 11.6216 12.6601 11.6216H12.5675Z" fill="#333333"/>
<path d="M16.1068 10C15.8473 10 15.6434 10.2037 15.6434 10.4633V11.6215H14.4758C14.448 11.6124 14.4111 11.6124 14.3833 11.6124H12.6597C12.6319 11.6124 12.5947 11.6124 12.5669 11.6215C12.5485 11.6215 12.5391 11.6309 12.5207 11.6402C12.4742 11.6493 12.4373 11.668 12.4001 11.6958C12.3723 11.7142 12.3539 11.7327 12.3352 11.7605C12.2889 11.7976 12.2518 11.8439 12.2333 11.8995C12.2055 11.9551 12.1962 12.02 12.1962 12.085H10V10.4633C10 10.2037 10.2039 10 10.4635 10H16.1068Z" fill="#B66C0C"/>
<path d="M12.1962 12.0854V14.1517H10.4635C10.2039 14.1517 10 13.948 10 13.6885V12.0854H12.1962Z" fill="#E78E22"/>
<path d="M13.9471 11.9087V11.9365C13.9471 11.9283 13.9471 11.9189 13.9564 11.9087V11.8902C13.9471 11.8996 13.9471 11.9087 13.9471 11.9087ZM14.846 20.3423H15.6429V20.3332H14.846V20.3423ZM14.4753 11.6216H14.3828C14.4197 11.6216 14.4568 11.6216 14.494 11.6307C14.4846 11.6216 14.4846 11.6216 14.4753 11.6216Z" fill="#333333"/>
<path d="M15.6416 11.6216V20.3323H14.8447V20.3416H13.918V12.0851C13.918 12.0386 13.9273 12.0017 13.9367 11.9552C13.9367 11.9552 13.9367 11.9461 13.9458 11.9367C13.9458 11.9274 13.9458 11.9183 13.9551 11.9089V11.8905C13.9829 11.844 14.0107 11.8071 14.0385 11.7699C14.057 11.7421 14.0848 11.7237 14.1126 11.6959H14.1219C14.159 11.6681 14.196 11.6587 14.2331 11.6494C14.2794 11.6309 14.3258 11.6216 14.3721 11.6216H14.3814C14.4184 11.6216 14.4555 11.6216 14.4926 11.6309C14.4833 11.6216 14.4833 11.6216 14.474 11.6216H15.6416Z" fill="#FFE082"/>
<path d="M13.9385 11.9554C13.9294 12.0016 13.92 12.0388 13.92 12.085V13.7808C13.9107 13.7521 13.9107 13.7243 13.9107 13.6883V12.085C13.9107 12.0563 13.9107 12.0294 13.92 12.011C13.92 11.9925 13.92 11.9738 13.9385 11.9554Z" fill="#333333"/>
<path d="M13.9586 11.8908V11.9092C13.9493 11.9186 13.9493 11.9277 13.9493 11.937C13.9399 11.9464 13.9399 11.9555 13.9399 11.9555C13.9308 11.937 13.9399 11.9277 13.9493 11.9092C13.9493 11.9092 13.9493 11.8999 13.9586 11.8908Z" fill="#333333"/>
<path d="M14.0414 11.7698C14.0136 11.8069 13.9858 11.8439 13.958 11.8903C13.958 11.881 13.958 11.8708 13.9673 11.8625C13.9858 11.8254 14.0136 11.7976 14.0414 11.7698Z" fill="#333333"/>
<path d="M21.7221 12.0851V20.3416H20.0078V11.6216H21.2588C21.5181 11.6216 21.7221 11.8255 21.7221 12.0851Z" fill="#FFE082"/>
<path d="M29.4218 12.0854V13.6885C29.4218 13.948 29.218 14.1517 28.9585 14.1517H21.7212V12.0854H29.4218Z" fill="#E78E22"/>
<path d="M10.7312 23.0472V23.3159C10.7312 23.3622 10.7403 23.3993 10.7497 23.4364C10.7403 23.3066 10.7312 23.1862 10.7312 23.0472Z" fill="#333333"/>
<path d="M13.7588 22.5215H12.6569C12.4011 22.5215 12.1936 22.3138 12.1936 22.058C12.1936 21.8023 12.4011 21.5948 12.6569 21.5948H13.7588C14.0146 21.5948 14.2221 21.8023 14.2221 22.058C14.2221 22.3138 14.0146 22.5215 13.7588 22.5215Z" fill="#B66C0C"/>
<path d="M17.786 22.5215H16.6842C16.4285 22.5215 16.2208 22.3138 16.2208 22.058C16.2208 21.8023 16.4285 21.5948 16.6842 21.5948H17.786C18.0418 21.5948 18.2493 21.8023 18.2493 22.058C18.2493 22.3138 18.0418 22.5215 17.786 22.5215Z" fill="#B66C0C"/>
<path d="M21.8093 22.5215H20.7075C20.4509 22.5215 20.2443 22.3138 20.2443 22.058C20.2443 21.8023 20.4509 21.5948 20.7075 21.5948H21.8093C22.065 21.5948 22.2728 21.8023 22.2728 22.058C22.2728 22.3138 22.065 22.5215 21.8093 22.5215Z" fill="#B66C0C"/>
<path d="M27.7382 23.4364C27.7476 23.3995 27.7569 23.3624 27.7569 23.3161V23.0472C27.7569 23.1862 27.7476 23.3068 27.7382 23.4364Z" fill="#333333"/>
<path d="M25.8366 22.5215H24.7346C24.478 22.5215 24.2714 22.3138 24.2714 22.058C24.2714 21.8023 24.478 21.5948 24.7346 21.5948H25.8366C26.0924 21.5948 26.2999 21.8023 26.2999 22.058C26.2999 22.3138 26.0924 22.5215 25.8366 22.5215Z" fill="#B66C0C"/>
<path d="M14.3748 11.6216C14.3285 11.6216 14.2823 11.6309 14.2358 11.6494C14.1989 11.6587 14.1617 11.6681 14.1246 11.6959H14.1155C14.0877 11.7237 14.0599 11.7421 14.0412 11.7699C14.0043 11.7977 13.9856 11.8255 13.9671 11.8627C13.9578 11.8718 13.9578 11.8811 13.9578 11.8905C13.9487 11.8996 13.9487 11.9089 13.9487 11.9089C13.9393 11.9274 13.93 11.9367 13.9393 11.9552C13.9209 11.9739 13.9209 11.9923 13.9209 12.0108C13.9115 12.0295 13.9115 12.0573 13.9115 12.0851V20.3416H12.1973V12.0851C12.1973 12.0201 12.2064 11.9552 12.2342 11.8996C12.2529 11.844 12.2898 11.7977 12.3363 11.7606C12.3547 11.7328 12.3732 11.7143 12.401 11.6959C12.4381 11.6681 12.4753 11.6494 12.5215 11.6403C12.5587 11.6309 12.6143 11.6216 12.6605 11.6216H14.3748Z" fill="#FFB84D"/>
</svg>
