<svg width="40" height="40" viewBox="0 0 40 40" fill="none" xmlns="http://www.w3.org/2000/svg">
<rect width="40" height="40" rx="20" fill="white"/>
<path d="M16.5597 25.5153C17.456 26.4212 17.456 27.8814 16.5597 28.787C16.1067 29.2306 15.5152 29.4617 14.9238 29.4617C14.3323 29.4617 13.7407 29.2306 13.288 28.787C12.7703 28.2602 12.5394 27.5302 12.641 26.8184C11.9294 26.9203 11.1992 26.6891 10.6724 26.1717C9.77586 25.2658 9.77586 23.8056 10.6724 22.9C11.5781 22.0034 13.0384 22.0034 13.9441 22.9C13.9811 22.9461 14.0273 22.9831 14.0643 23.0293L15.4597 21.643L17.8258 24.009L16.4301 25.3953C16.4765 25.4321 16.5133 25.4785 16.5597 25.5153Z" fill="#FFE082"/>
<path d="M26.7247 14.1936C26.5306 14.3968 26.2718 14.4986 25.9945 14.4986C25.7172 14.4986 25.4586 14.3968 25.2552 14.1936C24.8577 13.7962 24.8577 13.1307 25.2552 12.7332C25.4586 12.5301 25.7172 12.4283 25.9945 12.4283C26.2718 12.4283 26.5306 12.5301 26.7247 12.7332C27.1313 13.1307 27.1313 13.7962 26.7247 14.1936ZM26.6693 17.6871C26.4752 17.8812 26.2163 17.9921 25.9391 17.9921C25.6618 17.9921 25.3939 17.8812 25.1998 17.6871C24.8023 17.2803 24.8023 16.6242 25.1998 16.2176C25.3939 16.0236 25.6618 15.9127 25.9391 15.9127C26.2163 15.9127 26.4752 16.0236 26.6693 16.2176C27.0758 16.6242 27.0758 17.2803 26.6693 17.6871ZM23.2405 14.2582C23.0464 14.4523 22.7876 14.5632 22.5103 14.5632C22.2331 14.5632 21.9651 14.4523 21.771 14.2582C21.577 14.0641 21.4661 13.7962 21.4661 13.5189C21.4661 13.2416 21.577 12.9828 21.771 12.7887C21.9651 12.5946 22.2331 12.4837 22.5103 12.4837C22.7876 12.4837 23.0464 12.5946 23.2405 12.7887C23.4346 12.9828 23.5455 13.2416 23.5455 13.5189C23.5455 13.7962 23.4346 14.0641 23.2405 14.2582ZM27.8799 11.5781C26.7524 10.4506 25.1814 9.89608 23.4714 10.0161C21.7895 10.1456 20.1536 10.9126 18.8782 12.188C17.7137 13.3525 16.9558 14.8497 16.7526 16.4024C16.5492 17.9089 15.9486 19.2121 15.0059 20.1548L14.8118 20.3488C14.7286 20.432 14.6732 20.552 14.6732 20.6722C14.6732 20.7925 14.7286 20.9125 14.8118 20.9956L18.4623 24.6464C18.5455 24.7296 18.6657 24.785 18.7857 24.785C18.9059 24.785 19.0262 24.7296 19.1093 24.6464L19.3034 24.4523C20.2461 23.5096 21.5492 22.9087 23.0555 22.7056C24.6082 22.5022 26.1054 21.7442 27.2699 20.5797C28.5453 19.3043 29.3126 17.6685 29.4419 15.9865C29.5621 14.2675 29.0076 12.7055 27.8799 11.5781Z" fill="#E78E22"/>
<path d="M23.5483 13.5187C23.5483 13.796 23.4374 14.0639 23.2433 14.258C23.0492 14.4521 22.7903 14.563 22.5131 14.563C22.2358 14.563 21.9679 14.4521 21.7738 14.258C21.5797 14.0639 21.4688 13.796 21.4688 13.5187C21.4688 13.2414 21.5797 12.9826 21.7738 12.7885C21.9679 12.5944 22.2358 12.4835 22.5131 12.4835C22.7903 12.4835 23.0492 12.5944 23.2433 12.7885C23.4374 12.9826 23.5483 13.2414 23.5483 13.5187Z" fill="#B66C0C"/>
<path d="M26.6687 17.6876C26.4746 17.8816 26.2158 17.9925 25.9385 17.9925C25.6613 17.9925 25.3933 17.8816 25.1992 17.6876C24.8018 17.281 24.8018 16.6249 25.1992 16.2181C25.3933 16.024 25.6613 15.9131 25.9385 15.9131C26.2158 15.9131 26.4746 16.024 26.6687 16.2181C27.0753 16.6249 27.0753 17.281 26.6687 17.6876Z" fill="#B66C0C"/>
<path d="M26.7268 14.1936C26.5327 14.3967 26.2738 14.4986 25.9966 14.4986C25.7193 14.4986 25.4607 14.3967 25.2573 14.1936C24.8598 13.7961 24.8598 13.1307 25.2573 12.7332C25.4607 12.53 25.7193 12.4282 25.9966 12.4282C26.2738 12.4282 26.5327 12.53 26.7268 12.7332C27.1333 13.1307 27.1333 13.7961 26.7268 14.1936Z" fill="#B66C0C"/>
</svg>
