<svg width="40" height="40" viewBox="0 0 40 40" fill="none" xmlns="http://www.w3.org/2000/svg">
<rect width="40" height="40" rx="20" fill="white"/>
<path d="M24.3283 24.6186C24.1275 24.6418 23.9497 24.5028 23.9265 24.302C23.9034 24.1088 24.0424 23.9305 24.2434 23.9003C24.4363 23.8771 24.6141 24.0232 24.6449 24.2162C24.6681 24.4179 24.5214 24.5955 24.3283 24.6186ZM23.9653 25.8924C23.7721 25.9164 23.5867 25.7773 23.5635 25.5765C23.5404 25.3748 23.6794 25.198 23.8802 25.1748C24.0734 25.1509 24.2587 25.2907 24.2819 25.4916C24.3051 25.6846 24.1661 25.87 23.9653 25.8924ZM22.5207 25.8924C22.32 25.9164 22.1422 25.7773 22.119 25.5765C22.0958 25.3748 22.2349 25.198 22.428 25.1748C22.6288 25.1509 22.8066 25.2907 22.8298 25.4916C22.853 25.6846 22.7139 25.87 22.5207 25.8924ZM19.2918 22.2164H18.6893C18.4732 22.2164 18.3032 22.0464 18.3032 21.83C18.3032 21.6131 18.4732 21.4439 18.6893 21.4439H19.2918C19.5004 21.4439 19.6782 21.6131 19.6782 21.8302C19.6782 22.0464 19.5004 22.2164 19.2918 22.2164ZM17.6311 22.2164C16.712 22.2164 15.9549 22.9648 15.9549 23.8925C15.9549 24.1012 15.785 24.2788 15.5687 24.2788C15.3601 24.2788 15.1825 24.101 15.1825 23.8925C15.1825 22.5408 16.2871 21.4439 17.6311 21.4439C17.8475 21.4439 18.0173 21.6131 18.0173 21.8302C18.0173 22.0464 17.8475 22.2164 17.6311 22.2164ZM26.5607 23.5063C26.5144 23.0121 26.3829 22.5408 26.159 22.1159C26.0509 21.8842 25.9118 21.6602 25.7496 21.4595C25.5179 21.158 25.2474 20.8877 24.9308 20.6714C24.7144 20.5016 24.4827 20.3703 24.2356 20.2613C23.7643 20.0381 23.2545 19.9144 22.7061 19.9059C22.5671 20.354 22.1422 20.6716 21.6555 20.6716C21.1613 20.6716 20.7442 20.3471 20.5973 19.899H19.6241C19.4772 20.3471 19.0601 20.6716 18.5659 20.6716C18.0792 20.6716 17.6543 20.354 17.5153 19.9059C16.9669 19.9144 16.4571 20.0381 15.9858 20.2613C15.7387 20.3703 15.507 20.5016 15.2906 20.6716C14.974 20.8877 14.7035 21.1582 14.4718 21.4595C14.3095 21.6602 14.1705 21.8842 14.0624 22.1159C13.8385 22.5408 13.707 23.0121 13.6607 23.5063C13.6453 23.63 13.6375 23.7612 13.6375 23.8927C13.6375 24.0232 13.6453 24.1476 13.6607 24.2788C13.707 24.804 13.8616 25.2985 14.101 25.7465C14.2168 25.9783 14.3637 26.1944 14.5259 26.3954C15.2597 27.2992 16.3798 27.8785 17.6311 27.8785H22.5903C23.8416 27.8785 24.9617 27.2992 25.6955 26.3954C25.8577 26.1944 26.0045 25.9783 26.1204 25.7465C26.3597 25.2985 26.5144 24.804 26.5607 24.2788C26.5761 24.1476 26.5839 24.0232 26.5839 23.8927C26.5839 23.7612 26.5761 23.63 26.5607 23.5063Z" fill="#FE624A"/>
<path d="M19.6763 21.8299C19.6763 22.0462 19.4987 22.2161 19.2901 22.2161H18.6876C18.4713 22.2161 18.3015 22.0462 18.3015 21.8299C18.3015 21.6135 18.4713 21.4437 18.6876 21.4437H19.2901C19.4987 21.4437 19.6763 21.6135 19.6763 21.8299Z" fill="#FFE082"/>
<path d="M18.0188 21.8299C18.0188 22.0462 17.849 22.2161 17.6327 22.2161C16.7135 22.2161 15.9564 22.9654 15.9564 23.8923C15.9564 24.1009 15.7866 24.2785 15.5702 24.2785C15.3617 24.2785 15.1841 24.1009 15.1841 23.8923C15.1841 22.5405 16.2886 21.4437 17.6327 21.4437C17.849 21.4437 18.0188 21.6135 18.0188 21.8299Z" fill="#FFE082"/>
<path d="M19.677 19.5592C19.677 19.6821 19.6617 19.7987 19.6231 19.8985C19.4763 20.3471 19.0591 20.6708 18.5647 20.6708C18.0781 20.6708 17.6534 20.3541 17.5143 19.9061C17.4756 19.7987 17.4524 19.6821 17.4524 19.5592C17.4524 18.9491 17.9546 18.4469 18.5647 18.4469C19.175 18.4469 19.677 18.9491 19.677 19.5592Z" fill="#FFE082"/>
<path d="M22.7701 19.5592C22.7701 19.6821 22.747 19.7987 22.7084 19.9061C22.5693 20.3541 22.1444 20.6708 21.6578 20.6708C21.1634 20.6708 20.7462 20.3471 20.5996 19.8985C20.5609 19.7987 20.5455 19.6821 20.5455 19.5592C20.5455 18.9491 21.0475 18.4469 21.6578 18.4469C22.2681 18.4469 22.7701 18.9491 22.7701 19.5592Z" fill="#FFE082"/>
<path d="M19.6265 16.0442C19.5957 16.0981 18.831 17.4121 17.6492 17.4499H17.6028C16.9693 17.4499 16.3822 17.0946 15.8338 16.384C15.7565 16.2842 15.687 16.1839 15.6099 16.0673C15.6021 16.0525 15.5943 16.0442 15.5943 16.0286C15.5789 15.9978 15.5711 15.9598 15.5635 15.929C15.5558 15.9051 15.5558 15.8741 15.548 15.851V15.8356C15.548 15.7815 15.5635 15.7197 15.5943 15.6741C15.6331 15.6046 15.6794 15.5575 15.7411 15.5188C15.7953 15.4809 15.8648 15.4648 15.9343 15.4648H19.2945C19.4335 15.4648 19.557 15.5427 19.6265 15.6578C19.696 15.7815 19.696 15.929 19.6265 16.0442Z" fill="#FE624A"/>
<path d="M15.9861 20.2615C15.739 20.3705 15.5072 20.5018 15.2909 20.671C14.8196 20.1844 13.9083 19.0804 14.0163 17.829C14.0859 16.9872 14.5879 16.2681 15.5148 15.6663C15.5226 15.7195 15.5304 15.7736 15.5458 15.8361V15.8509C15.5458 15.9127 15.5612 15.9744 15.5921 16.0293C15.5921 16.0439 15.5999 16.0525 15.6075 16.0671C15.6848 16.1837 15.7543 16.2842 15.8316 16.3839C15.1904 16.825 14.8352 17.3424 14.7888 17.8978C14.7115 18.8635 15.5612 19.8599 15.9861 20.2615Z" fill="#B66C0C"/>
<path d="M18.5788 13.7501L16.8718 15.4649H15.9293C15.8598 15.4649 15.7902 15.4803 15.7363 15.5189C15.6744 15.5576 15.628 15.604 15.5895 15.6735C15.5585 15.7198 15.5431 15.7816 15.5431 15.8357C15.5277 15.7738 15.52 15.7198 15.5122 15.6657C15.3577 14.7002 15.5277 13.974 16.022 13.5106C16.8794 12.7073 18.3471 13.0864 18.4088 13.1088C18.5403 13.1398 18.6484 13.2486 18.6793 13.3801C18.7179 13.5106 18.6793 13.6574 18.5788 13.7501Z" fill="#FE624A"/>
<path d="M15.548 15.8509C15.5558 15.8741 15.5558 15.905 15.5635 15.9289C15.5711 15.9599 15.5789 15.9977 15.5943 16.0285C15.5635 15.9745 15.548 15.9126 15.548 15.8509Z" fill="#3A3A3A"/>
<path d="M26.2027 17.8288C26.311 19.0802 25.3994 20.1848 24.9282 20.6714C24.712 20.5014 24.4803 20.3701 24.233 20.2613C24.5342 19.9762 25.5231 18.9566 25.4304 17.8906C25.384 17.3422 25.0287 16.8246 24.3876 16.3843C24.4647 16.2838 24.5342 16.1835 24.6115 16.0677C24.6193 16.0521 24.6269 16.0437 24.6269 16.0289C24.6579 15.975 24.6733 15.913 24.6733 15.8506V15.8359C24.6888 15.774 24.6964 15.7201 24.7042 15.6659C25.6312 16.2677 26.1332 16.9868 26.2027 17.8288Z" fill="#B66C0C"/>
<path d="M24.7099 15.6661C24.6404 15.612 24.5631 15.5657 24.4858 15.5193C24.4318 15.4808 24.3623 15.4644 24.2928 15.4644H23.3503L21.6432 13.7505C21.5427 13.6569 21.5042 13.511 21.5427 13.3798C21.5737 13.2483 21.6818 13.1395 21.8132 13.1085C21.8749 13.0939 23.3427 12.7077 24.2001 13.511C24.6943 13.9745 24.8643 14.7006 24.7099 15.6661Z" fill="#FE624A"/>
<path d="M24.7071 15.6661C24.6993 15.7194 24.6915 15.7742 24.6761 15.8361V15.8508C24.6684 15.8747 24.6684 15.9057 24.6608 15.9288C24.653 15.9596 24.6452 15.9984 24.6298 16.0291C24.6298 16.0438 24.622 16.0523 24.6144 16.0679C24.5371 16.1838 24.4676 16.284 24.3903 16.3845C23.8419 17.0951 23.2548 17.4505 22.6215 17.4505H22.5751C21.3933 17.4119 20.6286 16.0987 20.5976 16.0438C20.5281 15.9288 20.5281 15.7813 20.5976 15.6576C20.6671 15.5425 20.7908 15.4644 20.9298 15.4644H24.29C24.3595 15.4644 24.429 15.4808 24.483 15.5193C24.5603 15.5657 24.6376 15.612 24.7071 15.6661Z" fill="#FE624A"/>
<path d="M24.6272 16.0289C24.6428 15.9979 24.6504 15.9594 24.6582 15.9284C24.6659 15.9052 24.6659 15.8745 24.6735 15.8513C24.6735 15.913 24.6582 15.9748 24.6272 16.0289Z" fill="#3A3A3A"/>
<path d="M24.6445 24.2164C24.6677 24.4181 24.5209 24.595 24.3277 24.6189C24.1269 24.6421 23.9493 24.5023 23.9262 24.3013C23.903 24.1083 24.042 23.9306 24.2428 23.9005C24.436 23.8774 24.6136 24.0233 24.6445 24.2164Z" fill="#FFE082"/>
<path d="M24.2807 25.4915C24.3038 25.6845 24.1648 25.8698 23.9638 25.893C23.7708 25.9162 23.5854 25.7772 23.5623 25.5764C23.5391 25.3756 23.6781 25.1978 23.8789 25.1746C24.0721 25.1515 24.2575 25.2905 24.2807 25.4915Z" fill="#FFE082"/>
<path d="M22.8296 25.4915C22.8528 25.6845 22.7138 25.8698 22.5206 25.893C22.3198 25.9162 22.142 25.7772 22.1189 25.5764C22.0957 25.3756 22.2347 25.1978 22.4279 25.1746C22.6287 25.1515 22.8065 25.2905 22.8296 25.4915Z" fill="#FFE082"/>
<path d="M14.4694 21.4594C14.3072 21.6602 14.1681 21.8843 14.06 22.116L12.7931 21.5211C12.6001 21.4362 12.515 21.2045 12.6077 21.0113C12.6928 20.8183 12.9245 20.7332 13.1175 20.8259L14.4694 21.4594Z" fill="#B66C0C"/>
<path d="M14.9564 22.1006C14.9564 22.1082 14.9486 22.1082 14.9486 22.116C14.9332 22.1538 14.9101 22.1848 14.8869 22.2087C14.9101 22.1701 14.9332 22.1392 14.9564 22.1006Z" fill="#3A3A3A"/>
<path d="M14.5238 26.3953L13.1644 27.0363C13.1103 27.0673 13.0561 27.0749 13.0022 27.0749C12.8554 27.0749 12.7163 26.9978 12.6468 26.8509C12.5619 26.6578 12.639 26.4338 12.8322 26.3411L14.0989 25.7464C14.2148 25.9781 14.3616 26.1943 14.5238 26.3953Z" fill="#B66C0C"/>
<path d="M13.6377 23.8921C13.6377 24.0236 13.6453 24.1471 13.6609 24.2785H12.3863C12.17 24.2785 12 24.1016 12 23.8921C12 23.6767 12.17 23.506 12.3863 23.506H13.6609C13.6453 23.6296 13.6377 23.7609 13.6377 23.8921Z" fill="#B66C0C"/>
<path d="M27.4253 21.5213L26.1585 22.116C26.0505 21.8843 25.9114 21.6603 25.7492 21.4593L27.1009 20.8261C27.294 20.7326 27.518 20.8183 27.6107 21.0114C27.7034 21.2044 27.6185 21.4362 27.4253 21.5213Z" fill="#B66C0C"/>
<path d="M27.5717 26.8508C27.5022 26.9976 27.3631 27.0749 27.2163 27.0749C27.1624 27.0747 27.1082 27.0671 27.0541 27.0361L25.6946 26.3951C25.8569 26.1941 26.0037 25.978 26.1196 25.7462L27.3863 26.3409C27.5795 26.4336 27.6566 26.6578 27.5717 26.8508Z" fill="#B66C0C"/>
<path d="M28.2226 23.8921C28.2226 24.1016 28.0526 24.2785 27.8364 24.2785H26.5619C26.5773 24.1471 26.5851 24.0236 26.5851 23.8921C26.5851 23.7609 26.5773 23.6296 26.5619 23.506H27.8364C28.0526 23.506 28.2226 23.6767 28.2226 23.8921Z" fill="#B66C0C"/>
</svg>
