<svg width="40" height="40" viewBox="0 0 40 40" fill="none" xmlns="http://www.w3.org/2000/svg">
<rect width="40" height="40" rx="20" fill="white"/>
<path d="M25.3307 27.6839V30.2439C25.3307 30.5355 25.0904 30.7665 24.8083 30.7665H15.195C14.9129 30.7665 14.6724 30.5355 14.6724 30.2439V27.6733C14.7561 27.736 14.8396 27.7885 14.9337 27.8396C15.3204 28.0706 15.7068 28.269 16.1144 28.4362C16.4697 28.593 16.8354 28.7184 17.2013 28.8229C17.2221 28.8332 17.2534 28.8437 17.2742 28.8437C17.4521 28.8959 17.6296 28.9378 17.8072 28.9797C17.985 29.0213 18.1625 29.0632 18.3506 29.084C18.5282 29.1259 18.706 29.1457 18.8941 29.1572C19.0716 29.1876 19.2597 29.2094 19.4478 29.2094C19.5418 29.2199 19.6359 29.2295 19.7299 29.2199C19.8134 29.2295 19.9075 29.2295 20.0015 29.2295C20.0956 29.2295 20.1896 29.2295 20.2734 29.2199C20.3674 29.2295 20.4615 29.2199 20.5555 29.2094C20.7436 29.2094 20.9317 29.1876 21.1092 29.1572C21.2973 29.1457 21.4749 29.1259 21.6527 29.084C21.8408 29.0632 22.0183 29.0213 22.1959 28.9797C22.3737 28.9378 22.5512 28.8959 22.7288 28.8437C23.1782 28.7184 23.6276 28.5616 24.0559 28.3735C24.4008 28.2168 24.7456 28.0392 25.0696 27.8511C25.1637 27.7987 25.2472 27.7466 25.3307 27.6839Z" fill="#B66C0C"/>
<path d="M19.7303 29.2198C19.8139 29.2304 19.9079 29.2304 20.0019 29.2304C20.096 29.2304 20.19 29.2304 20.2735 29.2198H19.7303Z" fill="#333333"/>
<path d="M30 19.2413C30 22.6477 28.2237 25.8558 25.3292 27.6845C25.2456 27.7472 25.1619 27.7993 25.0678 27.8515C24.7441 28.0396 24.3992 28.2174 24.0544 28.3741C23.6258 28.5622 23.1767 28.719 22.7273 28.8443C22.5497 28.8965 22.3719 28.9384 22.1944 28.98C22.0168 29.0219 21.8287 29.0532 21.6509 29.0846C21.4734 29.1159 21.2853 29.1368 21.1077 29.1578C20.9196 29.1786 20.7315 29.1995 20.5537 29.21C20.4599 29.2205 20.3659 29.2308 20.2716 29.2205H19.7284C19.6344 29.2308 19.5403 29.2205 19.4463 29.21C19.2685 29.1995 19.0804 29.1786 18.8923 29.1578C18.7147 29.1368 18.5266 29.1159 18.3491 29.0846C18.1713 29.0532 17.9832 29.0219 17.8056 28.98C17.6281 28.9384 17.4503 28.8965 17.2727 28.8443C17.2519 28.8443 17.2206 28.8338 17.1995 28.8233C16.8339 28.719 16.4682 28.5936 16.1129 28.4368C15.7053 28.2695 15.3186 28.0709 14.9322 27.84C14.8381 27.7888 14.7544 27.7366 14.6708 27.6739C11.7766 25.8558 10 22.6477 10 19.2413C10 19.5235 10.2403 19.7637 10.5224 19.7637H29.4776C29.7598 19.7637 30 19.5235 30 19.2413Z" fill="#FFE082"/>
<path d="M30 17.5701V19.242C30 19.5232 29.7598 19.7644 29.4776 19.7644H10.5224C10.2403 19.7644 10 19.5232 10 19.242V17.5701C10 17.3298 10.1567 17.1302 10.3762 17.0685C10.4181 17.058 10.4702 17.0477 10.5224 17.0477H29.4776C29.7598 17.0477 30 17.2774 30 17.5701Z" fill="#B66C0C"/>
<path d="M18.5703 16.9106C18.56 16.8687 18.539 16.828 18.5181 16.7862L18.4136 17.0475H18.6017C18.5914 17.0056 18.5808 16.9522 18.5703 16.9106Z" fill="#333333"/>
<path d="M18.5703 16.9106C18.56 16.8687 18.539 16.828 18.5182 16.7862L18.4136 17.0475H18.5914C18.5808 17.0056 18.5808 16.9522 18.5703 16.9106Z" fill="#333333"/>
<path d="M20.6367 11.4664L20.4173 12.0109L20.2397 12.4395L18.9858 15.6462L18.6304 13.7548C18.5783 13.4624 18.3067 13.2846 18.014 13.337C17.7319 13.3902 17.5438 13.662 17.596 13.9429L17.9513 15.8449C17.9408 15.8353 17.9305 15.8238 17.92 15.8135C17.3976 15.3548 16.7079 15.2074 16.2064 15.177V15.082C16.2064 14.9774 16.1958 14.8846 16.1853 14.7906C16.1645 14.6546 16.1331 14.5293 16.0913 14.4131C16.0704 14.3402 16.0391 14.2877 16.0077 14.2263C15.8929 14.0069 15.7361 13.8396 15.5794 13.7132C15.527 13.6713 15.4643 13.6294 15.4121 13.5981C15.3808 13.568 15.3494 13.5459 15.3076 13.5261C15.0673 13.4007 14.806 13.337 14.5657 13.3067C14.6179 12.92 14.7644 12.4487 15.0987 12.0841C15.2449 11.9264 15.4748 11.7498 15.7883 11.6442C15.6108 11.153 15.4748 10.4748 15.757 9.86894C16.0391 9.27207 16.6452 8.90743 17.5646 8.79157C18.5575 8.66618 19.2261 8.82392 19.6022 9.27207C20.0516 9.79471 19.8949 10.4854 19.7695 10.9232L20.6367 11.4664Z" fill="#AB9A17"/>
<path d="M25.1619 13.4843H24.7022C24.6498 13.4843 24.4095 13.4728 24.1066 13.5146C23.678 13.5678 23.0929 13.7235 22.6959 14.1321C22.4973 14.34 22.3719 14.5815 22.3092 14.8626C21.8912 14.9682 21.2955 15.2074 20.9404 15.7622C20.7105 16.1268 20.6164 16.5554 20.6897 17.0474H18.5996C18.5893 17.0058 18.5788 16.9524 18.5683 16.9105C18.558 16.8689 18.5369 16.828 18.5161 16.7864V16.7748L18.9863 15.6463L20.2403 12.4393L20.4178 12.0109L20.6372 11.4665L21.2329 10.0766C21.348 9.81558 21.6301 9.69119 21.8912 9.78523C22.0165 9.8374 24.7962 10.8501 25.1619 13.4843Z" fill="#FE624A"/>
<path d="M18.518 16.7745V16.7861L18.4134 17.0474H14.7457L13.5964 15.48C13.4291 15.249 13.1051 15.1969 12.8754 15.3639C12.6349 15.5322 12.5827 15.8654 12.7603 16.0964L13.4499 17.0474H10.5243C10.4719 17.0474 10.4197 17.0579 10.3778 17.0672C10.3465 16.994 10.3257 16.9313 10.3151 16.8583C10.1897 16.2416 10.357 15.6671 10.8167 15.2187C10.7751 14.7068 10.7959 13.6932 11.4855 13.1906C11.9976 12.8259 12.7081 12.856 13.6067 13.2846C13.8158 13.2648 14.1709 13.2427 14.5682 13.3064C14.8084 13.3368 15.0697 13.4005 15.31 13.5259C15.3519 13.5457 15.3832 13.5678 15.4146 13.5981C15.4667 13.6295 15.5294 13.6711 15.5816 13.713C15.7383 13.8384 15.8951 14.0066 16.0102 14.2261C16.0415 14.2878 16.0729 14.3399 16.0937 14.4132C16.1356 14.529 16.1669 14.6544 16.1877 14.7903C16.1983 14.8834 16.2086 14.9774 16.2086 15.0817V15.177C16.7101 15.2071 17.3998 15.3546 17.9224 15.8133C17.9327 15.8238 17.9432 15.8354 17.9538 15.8446C18.0267 15.9189 18.1 15.9908 18.1627 16.0746C18.2359 16.1581 18.2986 16.2522 18.3613 16.3577C18.4134 16.4611 18.4656 16.5666 18.497 16.691C18.5075 16.7224 18.518 16.7444 18.518 16.7745Z" fill="#ECD232"/>
<path d="M18.6017 17.0475H18.4136L18.5181 16.7862C18.539 16.828 18.56 16.8687 18.5703 16.9106C18.5808 16.9524 18.5914 17.0056 18.6017 17.0475Z" fill="#333333"/>
<path d="M18.9875 15.6464L18.5173 16.7749C18.5173 16.7446 18.5068 16.7227 18.4962 16.6914C18.4649 16.567 18.4127 16.4614 18.3606 16.3581C18.2979 16.2525 18.2352 16.1585 18.1619 16.0747C18.0992 15.9912 18.026 15.9192 17.953 15.845L17.5977 13.9431C17.5455 13.6622 17.7336 13.3903 18.0157 13.3372C18.3082 13.2847 18.58 13.4626 18.6322 13.755L18.9875 15.6464Z" fill="#FFFADD"/>
<path d="M29.7181 14.7267C29.6554 15.2282 29.363 15.6576 28.8301 16.0024V17.0474H25.528L26.1969 16.503C26.4163 16.3159 26.4476 15.9909 26.2698 15.7611C26.0818 15.5417 25.758 15.5104 25.528 15.6879L23.856 17.0474H20.6899C20.6169 16.5551 20.711 16.1268 20.9407 15.7611C21.296 15.2072 21.8917 14.9669 22.3097 14.8623C22.3724 14.5802 22.4978 14.3399 22.6962 14.132C23.0934 13.7235 23.6785 13.5678 24.1068 13.5144C24.41 13.4727 24.6503 13.4843 24.7024 13.4843H25.4759C25.6953 13.1174 26.1131 12.5739 26.8028 12.3756C27.4297 12.1875 28.0986 12.3452 28.7987 12.826C28.9344 12.9398 29.8332 13.7338 29.7181 14.7267Z" fill="#ECD232"/>
<path d="M26.1977 16.5039L25.5291 17.0483H23.8571L25.5288 15.6888C25.7588 15.5113 26.0828 15.5426 26.2709 15.762C26.4485 15.9918 26.4171 16.3158 26.1977 16.5039Z" fill="#FFFADD"/>
<path d="M14.745 17.0474H13.4492L12.7596 16.0964C12.582 15.8655 12.6342 15.5322 12.8744 15.3649C13.1044 15.1969 13.4284 15.249 13.5954 15.48L14.745 17.0474Z" fill="#FFFADD"/>
</svg>
