<svg width="40" height="40" viewBox="0 0 40 40" fill="none" xmlns="http://www.w3.org/2000/svg">
<rect width="40" height="40" rx="20" fill="white"/>
<path d="M21.9723 17.3342C21.9723 17.7364 21.7613 18.0905 21.4421 18.3151C21.2194 18.4722 20.9435 18.5604 20.6467 18.5604H14.729C14.433 18.5604 14.1563 18.4623 13.9336 18.3055C13.6155 18.0905 13.4149 17.7364 13.4149 17.3342C13.4149 16.6583 14.0077 16.1078 14.729 16.1078H20.6467C21.3785 16.1078 21.9723 16.6583 21.9723 17.3342Z" fill="#B66C0C"/>
<path d="M18.0704 20.5711C18.0704 20.8369 17.837 21.0616 17.5403 21.0616C17.2539 21.0616 17.0098 20.8369 17.0098 20.5711V19.4528C17.0098 19.1879 17.2539 18.9621 17.5403 18.9621C17.837 18.9621 18.0704 19.1879 18.0704 19.4528V20.5711ZM21.4429 19.1987V18.3146C21.2202 18.4717 20.9445 18.56 20.6475 18.56H14.7298C14.4328 18.56 14.1571 18.463 13.9344 18.305V19.1879C12.8634 19.9039 12.068 20.8949 11.633 22.0229H23.7547C23.32 20.9045 22.5139 19.9138 21.4429 19.1987Z" fill="#FFE082"/>
<path d="M14.5479 12.7527C14.5479 12.7918 14.5479 12.8311 14.5596 12.8605H12.7461C12.4493 12.8605 12.2159 12.6446 12.2159 12.3701V11.2614C12.2159 10.9869 12.4493 10.771 12.7461 10.771H14.5596C14.5479 10.8004 14.5479 10.8397 14.5479 10.8691V12.7527Z" fill="#B66C0C"/>
<path d="M31.25 11.2623V12.371C31.25 12.6446 31.0168 12.8615 30.7198 12.8615H20.6343C20.645 12.832 20.645 12.7927 20.645 12.7536V10.8701C20.645 10.8397 20.645 10.8004 20.6343 10.7719H30.7198C31.0168 10.7719 31.25 10.9878 31.25 11.2623Z" fill="#B66C0C"/>
<path d="M16.223 13.6066C16.223 13.7342 16.2454 13.8519 16.2877 13.9696C16.1701 14.0087 16.0428 14.0285 15.9156 14.0285C15.2049 14.0285 14.6111 13.5183 14.5592 12.8609C14.5475 12.8315 14.5475 12.7924 14.5475 12.7531V10.8695C14.5475 10.8401 14.5475 10.8008 14.5592 10.7713C14.6111 10.1239 15.1945 9.604 15.9156 9.604C16.0428 9.604 16.1701 9.6226 16.2877 9.66192C16.2454 9.78059 16.223 9.89831 16.223 10.0259V13.6066Z" fill="#E78E22"/>
<path d="M20.647 10.8695V12.7531C20.647 12.7924 20.647 12.8315 20.6363 12.8609C20.5834 13.5183 19.9893 14.0285 19.2683 14.0285C19.141 14.0285 19.0137 14.0087 18.8982 13.9696C18.9407 13.8519 18.9608 13.7342 18.9608 13.6066V10.0259C18.9608 9.89831 18.9407 9.78059 18.8982 9.66286C19.0137 9.6226 19.141 9.604 19.2683 9.604C20.001 9.604 20.5834 10.1239 20.6363 10.7713C20.647 10.8008 20.647 10.8401 20.647 10.8695Z" fill="#E78E22"/>
<path d="M18.9614 10.0254V13.606C18.9614 13.7337 18.9403 13.8514 18.8978 13.97C18.7283 14.489 18.2085 14.8716 17.5934 14.8716C16.9784 14.8716 16.4597 14.489 16.2889 13.97C16.2467 13.8514 16.2253 13.7337 16.2253 13.606V10.0254C16.2253 9.89779 16.2467 9.78007 16.2889 9.66235C16.448 9.1326 16.9784 8.75 17.5934 8.75C18.2085 8.75 18.7387 9.1326 18.8978 9.66235C18.9403 9.78007 18.9614 9.89779 18.9614 10.0254Z" fill="#FFB84D"/>
<path d="M20.3174 26.0269C19.6386 26.0269 19.0871 25.5157 19.0871 24.889C19.0871 24.261 19.6386 23.7412 20.3174 23.7412C20.996 23.7412 21.5582 24.261 21.5582 24.889C21.5582 25.5157 20.996 26.0269 20.3174 26.0269ZM20.5401 27.6554C20.2528 27.6554 20.0204 27.4386 20.0204 27.1747C20.0204 26.8999 20.2528 26.6842 20.5401 26.6842C20.8369 26.6842 21.0703 26.8999 21.0703 27.1747C21.0703 27.4386 20.8369 27.6554 20.5401 27.6554ZM17.5388 27.978C16.86 27.978 16.3087 27.469 16.3087 26.8302C16.3087 26.2035 16.86 25.6932 17.5388 25.6932C18.228 25.6932 18.7796 26.2035 18.7796 26.8302C18.7796 27.469 18.228 27.978 17.5388 27.978ZM14.6426 25.5755C13.9648 25.5755 13.4135 25.0656 13.4135 24.4376C13.4135 23.8088 13.9648 23.2997 14.6426 23.2997C15.3224 23.2997 15.8737 23.8088 15.8737 24.4376C15.8737 25.0656 15.3224 25.5755 14.6426 25.5755ZM14.6426 27.3209C14.3572 27.3209 14.1124 27.1059 14.1124 26.8302C14.1124 26.5665 14.3572 26.3506 14.6426 26.3506C14.9406 26.3506 15.1727 26.5665 15.1727 26.8302C15.1727 27.1059 14.9406 27.3209 14.6426 27.3209ZM17.1677 23.594C17.454 23.594 17.6872 23.8196 17.6872 24.0845C17.6872 24.3493 17.454 24.5749 17.1677 24.5749C16.8707 24.5749 16.6373 24.3493 16.6373 24.0845C16.6373 23.8196 16.8707 23.594 17.1677 23.594ZM24.0399 23.0054C23.9762 22.6718 23.8808 22.3372 23.7535 22.0243H11.6318C11.5035 22.3372 11.4091 22.6718 11.3559 23.0054C11.2808 23.3487 11.25 23.692 11.25 24.0442C11.25 27.3317 14.1345 30 17.6872 30C21.2401 30 24.1353 27.3317 24.1353 24.0442C24.1353 23.692 24.1035 23.3487 24.0399 23.0054Z" fill="#FFB84D"/>
<path d="M20.3158 23.7401C19.637 23.7401 19.0854 24.2602 19.0854 24.8879C19.0854 25.5158 19.637 26.026 20.3158 26.026C20.9944 26.026 21.5566 25.5158 21.5566 24.8879C21.5566 24.2602 20.9944 23.7401 20.3158 23.7401Z" fill="#B66C0C"/>
<path d="M17.539 25.6926C16.8601 25.6926 16.3086 26.2026 16.3086 26.8296C16.3086 27.4681 16.8601 27.9774 17.539 27.9774C18.2282 27.9774 18.7798 27.4681 18.7798 26.8296C18.7798 26.2026 18.2282 25.6926 17.539 25.6926Z" fill="#B66C0C"/>
<path d="M14.6443 23.2991C13.9655 23.2991 13.4149 23.8093 13.4149 24.4372C13.4149 25.0649 13.9655 25.5751 14.6443 25.5751C15.3239 25.5751 15.8744 25.0649 15.8744 24.4372C15.8744 23.8093 15.3239 23.2991 14.6443 23.2991Z" fill="#B66C0C"/>
<path d="M17.6862 24.0834C17.6862 24.3493 17.4531 24.5739 17.1678 24.5739C16.8697 24.5739 16.6373 24.3493 16.6373 24.0834C16.6373 23.8186 16.8697 23.5928 17.1678 23.5928C17.4531 23.593 17.6862 23.8186 17.6862 24.0834Z" fill="#FFE082"/>
<path d="M21.0721 27.1738C21.0721 27.4387 20.8387 27.6546 20.542 27.6546C20.2546 27.6546 20.0222 27.4387 20.0222 27.1738C20.0222 26.8993 20.2546 26.6834 20.542 26.6834C20.8387 26.6834 21.0721 26.8993 21.0721 27.1738Z" fill="#FFE082"/>
<path d="M15.1749 26.8301C15.1749 27.1046 14.9415 27.3205 14.6447 27.3205C14.3584 27.3205 14.1143 27.1046 14.1143 26.8301C14.1143 26.5652 14.3584 26.3503 14.6447 26.3503C14.9415 26.3503 15.1749 26.5652 15.1749 26.8301Z" fill="#FFE082"/>
<path d="M18.0685 19.453V20.5714C18.0685 20.8362 17.8351 21.062 17.5384 21.062C17.252 21.062 17.0079 20.8362 17.0079 20.5714V19.453C17.0079 19.1872 17.252 18.9626 17.5384 18.9626C17.8351 18.9626 18.0685 19.1872 18.0685 19.453Z" fill="#FFB84D"/>
<path d="M18.1227 15.4111V16.1078H17.0621V15.4111C17.0621 15.1366 17.2955 14.9207 17.5923 14.9207C17.8893 14.9207 18.1227 15.1366 18.1227 15.4111Z" fill="#FFB84D"/>
</svg>
