<svg width="480" height="382" viewBox="0 0 480 382" fill="none" xmlns="http://www.w3.org/2000/svg">
<g clip-path="url(#clip0)">
<path d="M337.085 148.367C336.861 148.989 336.29 149.462 335.594 149.462C332.314 149.512 329.009 149.56 325.729 149.611C326.797 142.353 326.399 134.602 326.052 127.868C326.028 127.222 325.084 127.222 325.033 127.868C324.587 135.296 322.498 142.479 320.86 149.685C319.99 149.71 319.12 149.71 318.251 149.734C318.896 145.958 318.585 142.105 318.809 138.652C318.86 137.956 318.349 137.981 318.274 138.652C317.778 142.401 317.106 146.108 316.137 149.758C310.571 149.832 305.005 149.91 299.439 149.982C300.459 143.175 301.006 136.267 301.478 129.581C301.526 128.861 301.025 128.861 300.948 129.581C300.353 136.566 298.546 143.298 297.18 150.009C269.598 150.307 241.967 150.406 214.386 150.057C214.335 146.478 214.162 142.9 214.236 139.397C214.26 139.098 213.839 139.125 213.815 139.397C213.393 142.9 212.771 146.478 212.323 150.057C210.832 150.03 209.34 150.03 207.827 149.982C207.827 149.213 207.827 148.442 207.851 147.671C207.974 141.956 209.119 136.441 208.671 130.701C208.671 130.477 208.347 130.477 208.324 130.701C207.627 137.31 205.936 143.546 204.868 149.958C201.589 149.91 198.334 149.859 195.055 149.809C194.284 149.784 193.563 149.163 193.587 148.418C194.11 132.289 191.698 111.717 201.141 97.3281C205.34 90.9185 211.005 86.3479 217.441 82.37C227.356 76.2357 211.43 40.2788 242.14 10.7609C247.733 5.39226 255.137 2.38525 262.64 2.38525C297.799 2.38525 318.002 33.5448 318.846 56.032C319.12 63.7352 317.952 71.2648 315.74 78.6447C311.244 93.7041 327.072 102.523 331.418 106.672C343.198 117.88 341.856 134.477 337.085 148.367Z" fill="#0F423B"/>
<path d="M338.97 113.518C333.057 102.464 318.805 97.6686 318.612 83.8288C318.526 77.6604 319.593 71.6007 319.253 65.3987C318.947 59.8328 318.099 54.2913 316.649 48.9157C313.519 37.3167 307.95 27.2762 300.481 18.0938C300.45 18.0551 300.397 18.1106 300.426 18.1516C308.095 28.0042 313.478 39.9912 316.08 52.2962C317.35 58.3004 318.024 64.418 317.962 70.5673C317.902 76.239 316.531 82.1663 317.53 87.7998C319.058 96.4137 326.733 100.016 332.274 105.683C341.731 115.349 344.753 129.054 342.037 142.195C341.982 142.473 342.379 142.589 342.449 142.314C344.953 132.751 343.61 122.195 338.97 113.518Z" fill="#0F423B"/>
<path d="M233.445 22.3878C226.631 31.4233 222.26 41.7744 220.253 52.9061C219.234 58.5702 219.015 64.3529 217.858 69.994C216.345 77.3929 212.989 82.6407 207.627 87.8382C191.019 103.948 186.687 126.035 190.056 148.455C190.132 148.968 191.022 148.853 190.971 148.332C189.761 135.62 189.544 122.833 193.87 110.615C196.07 104.403 199.312 98.4593 203.751 93.5585C207.182 89.7679 211.495 86.8072 214.485 82.6147C219.754 75.2221 219.808 65.787 220.935 57.1321C222.554 44.6917 227.103 33.1651 233.513 22.4283C233.539 22.3826 233.474 22.3491 233.445 22.3878Z" fill="#0F423B"/>
<path d="M57.8724 63.6868L62.5853 62.0699C62.5853 62.0699 84.673 67.0165 92.0431 79.6424C92.0431 79.6424 108.247 67.1876 145.237 73.149L150.155 77.2547L89.8387 93.4122L57.8724 63.6868Z" fill="#F5E5D6"/>
<path d="M109.892 162.338L90.9851 82.9995C90.9851 82.9995 130.703 72.9451 151.287 75.4028L170.56 158.968C170.56 158.968 149.328 158.437 109.892 162.338Z" fill="#ED4C30"/>
<path d="M109.846 162.346C109.846 162.346 100.58 151.424 81.285 144.723L54.7302 62.7799C54.7302 62.7799 72.9238 70.5287 90.9392 83.0073L109.846 162.346Z" fill="#CE3C2A"/>
<path d="M250.878 187.248C249.81 188.339 248.666 189.559 247.422 190.85C227.245 211.996 188.583 258.51 168.953 248.126C148.305 237.168 111.852 182.155 106.211 170.898C100.573 159.667 114.189 148.335 122.612 151.887C131.036 155.417 169.252 186.949 174.618 189.684C176.931 190.85 187.043 180.167 202.896 165.852C204.163 164.71 205.481 163.541 206.82 162.349C224.14 147.02 243.697 130.843 256.817 129.773C258.332 129.674 259.723 129.749 260.942 129.997C277.167 133.476 278.931 158.298 250.878 187.248Z" fill="#FFCEA1"/>
<path d="M250.874 187.248C249.806 188.339 248.662 189.559 247.419 190.85C244.164 186.453 240.388 182.427 236.164 178.998C225.505 170.402 212.657 167.99 202.892 165.852C204.159 164.71 205.477 163.541 206.817 162.349C224.136 147.02 243.694 130.843 256.813 129.773C258.328 129.674 259.719 129.749 260.938 129.997C277.163 133.476 278.927 158.298 250.874 187.248Z" fill="#EFBB8B"/>
<path d="M177.757 239.386C176.244 237.591 173.338 237.027 171.548 238.744C169.948 240.282 170.129 243.161 172.495 244.209C174.256 244.987 176.449 243.046 175.116 241.224C174.912 240.942 174.507 241.296 174.649 241.636C175.15 242.841 173.541 243.364 172.786 242.708C172.189 242.185 172.011 241.299 172.295 240.612C172.743 239.53 173.941 239.193 174.996 239.467C176.076 239.749 176.967 240.629 177.268 241.713C177.603 242.922 177.022 244.082 176.415 245.091C176.276 245.325 176.582 245.645 176.782 245.51C178.62 244.265 179.29 241.202 177.757 239.386Z" fill="#EFBB8B"/>
<path d="M132.082 159.671L121.628 147.428C121.628 147.428 117.749 134.74 112.797 131.688C107.843 128.634 102.824 108.86 95.5501 110.61C88.2783 112.356 83.1728 134.861 85.5194 142.576C87.8689 150.294 100.43 159.418 100.43 159.418L109.53 176.783C109.53 176.783 129.189 171.347 132.082 159.671Z" fill="#FFCEA1"/>
<path d="M250.903 187.251C248.713 187.189 243.113 163.764 213.205 155.352C210.432 154.571 244.116 127.518 258.778 125.564C273.437 123.615 279.426 137.469 276.337 151.688C273.249 165.911 253.973 187.338 250.903 187.251Z" fill="#F5E5D6"/>
<path d="M405.546 366.695L310.91 366.661V366.695H233.588C243.199 323.903 262.357 288.089 262.357 288.089L346.363 265.671C346.363 265.671 394.453 298.163 405.546 366.695Z" fill="#ED4C30"/>
<path d="M305.382 366.698H302.122C301.236 359.224 300.872 351.094 300.51 342.899C288.892 341.878 278.586 334.635 270.293 327C269.667 326.407 270.589 325.518 271.213 326.046C280.333 333.715 290.733 336.676 301.628 340.627C301.795 340.693 301.925 340.792 302.057 340.924C302.221 341.023 302.387 341.153 302.421 341.384C304.197 348.923 304.888 358.207 305.382 366.698Z" fill="#CE3C2A"/>
<path d="M266.979 121.513C254.365 125.086 246.366 138.405 240.496 151.761C234.622 165.119 221.262 192.601 222.698 212.677C223.808 228.201 246.773 242.609 246.773 242.609C246.773 242.609 257.331 280.255 262.355 288.088C269.889 299.839 319.565 313.397 347.532 268.567C350.418 263.936 345.11 176.718 328.95 147.802C316.204 124.997 296.925 113.024 266.979 121.513Z" fill="#F5E5D6"/>
<path d="M303.756 230.15C295.275 233.962 288.526 239.308 278.77 239.679C270.349 239.999 262.239 237.099 254.517 234.08C254.172 233.945 253.986 234.472 254.273 234.653C261.981 239.542 270.691 242.573 279.927 241.992C289.434 241.392 296.67 236.229 304.108 230.75C304.469 230.485 304.166 229.966 303.756 230.15Z" fill="#E6D2C4"/>
<path d="M261.182 239.669C257.568 237.457 251.995 237.11 248.13 238.823C247.833 238.956 247.981 239.456 248.291 239.43C250.289 239.274 252.248 238.96 254.257 239.117C256.542 239.295 258.568 240.083 260.741 240.716C261.372 240.9 261.731 240.006 261.182 239.669Z" fill="#E6D2C4"/>
<path d="M299.177 134.281C293.604 141.02 287.265 146.461 278.897 149.442C268.558 153.126 254.802 151.14 254.558 137.377C254.554 137.189 254.274 137.189 254.267 137.377C253.899 146.989 260.847 154.157 270.611 153.289C282 152.273 293.43 143.902 299.654 134.648C299.842 134.365 299.399 134.016 299.177 134.281Z" fill="#E6D2C4"/>
<path d="M244.059 166.58C242.618 164.321 259.564 125.803 266.895 121.504C271.939 118.572 287.875 117.929 290.708 120.883C293.542 123.842 293.258 163.275 289.183 164.839C285.109 166.381 245.524 168.865 244.059 166.58ZM231.014 366.706H393.371C393.371 366.706 355.651 284.83 348.196 276.956C347.75 276.481 347.277 275.787 346.779 274.867V274.843C345.762 267.785 352.644 265.026 354.509 265.648C356.371 266.27 350.383 255.509 349.663 254.94C348.967 254.391 340.095 255.907 338.281 249.721C338.256 249.695 338.233 249.647 338.233 249.623C331.5 224.948 324.342 191.352 321.81 180.941C316.788 160.295 310.577 138.106 295.843 118.772C290.699 112.014 272.112 105.925 256.631 122.473C247.239 132.538 214.042 193.14 221.497 214.237C228.952 235.335 244.481 242.168 245.003 244.231C245.524 246.317 257.154 280.382 256.631 290.62C256.084 300.858 233.101 344.616 231.014 366.706Z" fill="#2A9084"/>
<path d="M303.756 230.15C295.275 233.962 288.526 239.308 278.77 239.679C270.349 239.999 262.239 237.099 254.517 234.08C254.172 233.945 253.986 234.472 254.273 234.653C261.981 239.542 270.691 242.573 279.927 241.992C289.434 241.392 296.67 236.229 304.108 230.75C304.469 230.485 304.166 229.966 303.756 230.15Z" fill="#006B5E"/>
<path d="M261.182 239.669C257.568 237.457 251.995 237.11 248.13 238.823C247.833 238.956 247.981 239.456 248.291 239.43C250.289 239.274 252.248 238.96 254.257 239.117C256.542 239.295 258.568 240.083 260.741 240.716C261.372 240.9 261.731 240.006 261.182 239.669Z" fill="#006B5E"/>
<path d="M262.402 135.965C262.402 135.965 265.159 143.516 272.105 142.347C284.131 140.331 291.166 127.642 291.667 124.662C291.865 123.375 290.981 112.619 289.26 102.273C289.079 101.24 288.899 100.206 288.718 99.17C288.538 98.1383 288.35 97.1553 288.143 96.1751C287.887 94.8642 287.617 93.5821 287.348 92.3007C285.321 82.6048 283.519 74.321 283.519 74.321L279.444 77.0557L251.353 97.5653L258.344 121.872L258.757 123.363L258.906 123.845L261.046 131.167L261.067 131.23L262.402 135.965Z" fill="#FFCEA1"/>
<path d="M258.757 123.363C262.776 123.823 266.999 123.349 271.296 121.705C280.415 118.248 285.63 110.713 289.261 102.273C289.08 101.24 288.899 100.208 288.719 99.1723C288.535 98.1383 288.35 97.1552 288.143 96.1774C287.885 94.8664 287.618 93.5844 287.348 92.3001C285.319 82.6048 283.517 74.321 283.517 74.321L279.444 77.0557L251.353 97.5675L258.345 121.874L258.757 123.363Z" fill="#EFBB8B"/>
<path d="M216.578 62.1447C217.558 106.946 242.696 108.871 250.344 109.982C259.025 111.24 292.767 109.194 296.422 64.5324C300.077 19.8685 278.937 6.16346 258.856 5.56321C238.774 4.96066 215.599 17.3432 216.578 62.1447Z" fill="#FFCEA1"/>
<path d="M250.068 62.309C250.103 62.1933 250.295 62.4703 250.283 62.5958C249.953 65.6317 250.086 69.1615 252.76 70.3828C252.844 70.4193 252.823 70.5731 252.724 70.5517C249.401 69.819 249.269 65.1304 250.068 62.309Z" fill="#0F423B"/>
<path d="M253.016 59.3508C257.936 59.3537 257.569 69.1988 253.011 69.1936C248.522 69.1913 248.891 59.3485 253.016 59.3508Z" fill="#0F423B"/>
<path d="M254.47 59.7167C255.328 60.1001 256.234 60.8732 257.19 60.8183C258.296 60.7576 258.973 59.6907 259.542 58.6787C259.602 58.5723 259.691 58.64 259.713 58.7602C260.007 60.4684 259.624 62.3287 257.826 62.8735C256.188 63.3673 254.747 62.0396 254.051 60.3817C253.921 60.0758 254.123 59.5652 254.47 59.7167Z" fill="#0F423B"/>
<path d="M229.806 61.1613C229.774 61.0456 229.574 61.318 229.586 61.4429C229.87 64.484 229.688 68.0138 226.994 69.1946C226.91 69.2305 226.929 69.3825 227.03 69.3606C230.362 68.6811 230.562 63.9948 229.806 61.1613Z" fill="#0F423B"/>
<path d="M226.819 58.1577C221.899 58.0877 222.121 67.9351 226.679 67.9999C231.168 68.0606 230.944 58.2127 226.819 58.1577Z" fill="#0F423B"/>
<path d="M225.26 58.567C224.436 59.0198 223.6 59.8682 222.644 59.8948C221.535 59.926 220.771 58.9209 220.118 57.9622C220.048 57.8633 219.966 57.9356 219.955 58.0559C219.807 59.7837 220.347 61.6053 222.183 61.9933C223.858 62.3472 225.18 60.9015 225.734 59.1933C225.839 58.8776 225.593 58.3837 225.26 58.567Z" fill="#0F423B"/>
<path d="M251.048 84.8991C250.392 85.6821 249.763 86.7352 248.67 86.9376C247.624 87.1301 246.337 86.7756 245.33 86.4963C245.231 86.4697 245.145 86.5808 245.215 86.6652C246.12 87.7541 247.85 88.3179 249.234 87.9322C250.585 87.554 251.146 86.2962 251.351 85.0073C251.382 84.8269 251.144 84.7835 251.048 84.8991Z" fill="#DA7D8C"/>
<path d="M223.85 49.8569C224.895 49.6956 225.833 49.3706 226.852 49.1028C228.001 48.8015 228.946 48.679 229.767 47.7485C230.206 47.25 230.131 46.2791 229.688 45.8044C228.656 44.7033 227.158 44.7224 225.758 45.0306C224.242 45.366 223.158 46.0091 222.194 47.2234C221.262 48.402 222.469 50.0714 223.85 49.8569Z" fill="#0F423B"/>
<path d="M257.398 51.2808C256.355 51.105 255.423 50.765 254.408 50.4833C253.263 50.163 252.321 50.0254 251.514 49.0857C251.08 48.582 251.17 47.6111 251.621 47.1438C252.671 46.0573 254.167 46.1006 255.56 46.4256C257.071 46.7847 258.145 47.4422 259.092 48.671C260.008 49.8617 258.774 51.5167 257.398 51.2808Z" fill="#0F423B"/>
<path d="M238.784 80.2466C238.784 80.2466 240.776 83.1836 243.624 84.3303C244.673 84.7594 245.815 84.9566 247.029 84.6871C249.526 84.1401 249.682 81.8773 249.311 79.9187C249.01 78.3065 248.326 76.9042 248.326 76.9042C248.326 76.9042 244.581 80.128 238.784 80.2466Z" fill="#0F423B"/>
<path d="M243.618 84.3371C244.666 84.7661 245.808 84.9639 247.023 84.6915C249.519 84.1468 249.676 81.8817 249.302 79.9254C246.644 80.0844 243.948 81.7759 243.618 84.3371Z" fill="#FF80A2"/>
<path d="M237.816 74.4177C237.816 74.4177 237.38 78.9958 237.469 81.1452C237.479 81.3447 238.002 81.4199 238.732 81.4315C238.77 81.4413 238.79 81.4535 238.818 81.4292C242.635 81.8606 246.399 80.3906 248.572 77.1986C248.712 76.9817 248.43 76.7718 248.24 76.914C245.497 79.1115 242.389 79.7811 239.031 79.9812C238.853 79.3908 240.038 72.1601 239.698 72.1503C238.52 72.0976 236.241 72.9963 234.867 73.4612C235.501 63.8955 237.662 54.5084 238.149 44.9745C238.161 44.6344 237.669 44.55 237.583 44.8588C234.621 54.5373 233.651 65.5291 232.744 75.3886C232.619 76.6203 236.97 74.8201 237.816 74.4177Z" fill="#EFBB8B"/>
<path d="M294.812 64.7461C289.815 64.7438 276.047 51.8096 274.235 27.7923C274.235 27.7923 277.353 49.2462 279.163 52.3156C280.97 55.3805 271.462 45.0317 269.729 25.6839C269.729 25.6839 259.448 34.0665 250.444 37.1719C241.44 40.2754 235.833 40.5189 235.139 39.8972C234.448 39.2733 247.668 34.2325 251.066 29.8186C251.066 29.8186 227.379 42.5741 216.201 44.092C214.907 44.2655 211.787 17.6529 228.474 5.29756C245.16 -7.05604 273.375 3.56275 281.187 10.2707C281.187 10.2707 289.942 10.9906 300.132 23.2743C310.322 35.5579 300.192 64.7484 294.812 64.7461Z" fill="#0F423B"/>
<path d="M242.247 62.8979C241.235 69.0298 245.398 74.8461 251.533 75.8633C257.662 76.8822 263.479 72.7088 264.496 66.5768C265.508 60.4425 261.344 54.6263 255.21 53.6114C254.265 53.4576 253.325 53.4211 252.41 53.5033C247.396 53.9294 243.104 57.7102 242.247 62.8979ZM251.246 77.5784C244.167 76.4051 239.36 69.6925 240.531 62.6133C241.702 55.5295 248.415 50.7252 255.496 51.8986C262.575 53.0696 267.382 59.7798 266.214 66.8636C265.223 72.8511 260.267 77.2101 254.48 77.7062C253.424 77.7976 252.34 77.7594 251.246 77.5784Z" fill="#0F423B"/>
<path d="M219.032 55.3695C217.406 57.4681 216.459 60.3091 216.36 63.3664C216.167 69.5806 219.57 74.7492 223.952 74.8885C228.347 75.0308 232.055 70.0819 232.255 63.8678C232.349 60.8105 231.581 57.9162 230.092 55.7217C228.658 53.6133 226.73 52.4134 224.661 52.3504C224.441 52.3411 224.219 52.348 224.003 52.3677C222.169 52.5238 220.427 53.5723 219.032 55.3695ZM223.894 76.6285C218.558 76.4597 214.396 70.4844 214.623 63.3138C214.729 59.8899 215.806 56.6903 217.656 54.3049C219.57 51.8374 222.068 50.5196 224.716 50.6086C227.359 50.693 229.778 52.1601 231.53 54.7433C233.226 57.2368 234.101 60.4994 233.992 63.9256C233.778 70.7134 229.711 76.1804 224.75 76.6043C224.465 76.6285 224.181 76.6355 223.894 76.6285Z" fill="#0F423B"/>
<path d="M241.035 64.1357L242.196 62.8369C240.275 61.1189 235.782 58.7479 232.5 62.0464L233.732 63.2729C236.669 60.3116 240.859 63.9813 241.035 64.1357Z" fill="#0F423B"/>
<path d="M300.272 65.6364L301.689 64.6268C301.217 63.967 296.972 58.1698 293.037 58.0975C289.358 58.0397 266.581 63.509 265.613 63.7449L266.022 65.434C272.552 63.8606 290.163 59.7814 293.004 59.8369C295.603 59.8849 299.13 64.0416 300.272 65.6364Z" fill="#0F423B"/>
<path d="M289.267 69.9917C289.267 69.9917 297.476 55.0266 304.164 57.807C310.851 60.5896 305.733 81.5403 298.625 85.1036C291.519 88.6675 288.091 82.1521 288.091 82.1521L289.267 69.9917Z" fill="#FFCEA1"/>
<path d="M302.514 63.7793C302.632 63.755 302.673 63.9209 302.574 63.9718C297.61 66.6417 295.399 71.7565 294.03 76.9586C295.362 74.8676 297.353 73.5856 300.126 75.1446C300.273 75.2238 300.167 75.4528 300.015 75.4361C297.839 75.2117 296.345 75.7495 295.093 77.6069C294.206 78.9248 293.678 80.5271 293.1 81.9994C292.907 82.491 292.042 82.3319 292.16 81.7803C292.169 81.7392 292.179 81.6958 292.189 81.6548C291.338 75.0457 295.475 65.2197 302.514 63.7793Z" fill="#EFBB8B"/>
<path d="M417.988 240.15C412.867 258.166 372.34 235.753 363.197 225.939C352.414 214.408 332.061 196.717 319.265 182.702C315.713 178.801 312.73 175.172 310.694 172.066C301.351 157.679 294.84 136.585 305.748 129.503C310.097 126.67 320.087 130.794 325.876 133.7C340.039 140.76 355.245 152.439 369.135 165.609C398.208 193.137 421.614 227.33 417.988 240.15Z" fill="#FFCEA1"/>
<path d="M369.136 165.606C351.419 166.748 333.777 172.587 319.265 182.702C315.713 178.801 312.73 175.172 310.694 172.066C301.35 157.679 294.84 136.582 305.747 129.503C310.097 126.67 320.086 130.794 325.874 133.7C340.039 140.758 355.245 152.436 369.136 165.606Z" fill="#EFBB8B"/>
<path d="M314.661 180.95C316.75 180.889 327.634 160.893 356.137 152.877C358.783 152.133 333.211 130.428 312.704 124.486C296.098 119.677 297.25 134.021 298.874 147.793C300.871 164.753 311.736 181.032 314.661 180.95Z" fill="#F5E5D6"/>
<path d="M365.563 254.171C346.977 248.073 326.597 237.941 309.55 229.585C300.879 225.335 306.403 202.644 319.699 202.861C352.472 203.399 384.665 201.457 403.987 219.248C415.359 229.725 419.976 232.917 417.528 242.285C413.345 258.301 395.327 263.939 365.563 254.171Z" fill="#FFCEA1"/>
<path d="M336.734 203.531L310.492 201.049C310.492 201.049 299.594 195.259 288.506 194.57C277.417 193.881 262.137 200.584 261.558 209.142C260.985 217.701 265.023 214.819 269.784 215.226C274.545 215.629 284.865 223.245 292.421 223.091C292.421 223.091 294.867 224.076 301.681 226.526C308.497 228.977 330.548 238.242 330.548 238.242C330.548 238.242 346.918 223.44 336.734 203.531Z" fill="#FFCEA1"/>
<path d="M410.152 240.065C408.639 238.27 405.731 237.707 403.941 239.425C402.343 240.962 402.522 243.841 404.89 244.889C406.651 245.668 408.844 243.725 407.512 241.904C407.304 241.622 406.902 241.976 407.044 242.316C407.545 243.521 405.936 244.043 405.182 243.388C404.584 242.865 404.406 241.978 404.69 241.292C405.136 240.21 406.333 239.873 407.391 240.147C408.47 240.429 409.362 241.309 409.66 242.391C409.998 243.603 409.415 244.759 408.81 245.771C408.668 246.005 408.976 246.325 409.176 246.19C411.012 244.945 411.684 241.882 410.152 240.065Z" fill="#EFBB8B"/>
<path d="M410.028 225.041C402.732 216.463 392.798 209.656 381.903 206.681C368.872 203.12 354.42 202.946 341 202.905C340.867 202.905 340.872 203.1 341 203.107C353.922 204.206 366.832 204.676 379.498 207.763C391.574 210.707 400.101 217.962 409.597 225.474C409.903 225.716 410.289 225.347 410.028 225.041Z" fill="#EFBB8B"/>
<path d="M251.353 210.192C251.353 210.192 259.024 207.949 261.525 207.997C264.026 208.045 281.907 220.246 282.574 221.718C283.24 223.193 282.162 230.115 282.162 230.115" stroke="#0F423B" stroke-width="0.00973131" stroke-miterlimit="10" stroke-linecap="round" stroke-linejoin="round"/>
<path opacity="0.5" d="M324.02 260.917C316.161 272.391 282.999 263.339 249.946 240.7C216.896 218.06 196.473 190.407 204.333 178.935C212.192 167.462 245.356 176.514 278.407 199.151C311.458 221.792 331.88 249.444 324.02 260.917Z" fill="white"/>
<path fill-rule="evenodd" clip-rule="evenodd" d="M324.019 260.912C331.873 249.446 311.434 221.77 278.405 199.146C245.375 176.522 212.184 167.463 204.33 178.929C196.476 190.395 216.915 218.072 249.945 240.695C282.974 263.319 316.166 272.378 324.019 260.912Z" stroke="#A8BAA2" stroke-width="0.0048715" stroke-miterlimit="10"/>
<path d="M306.635 309.01C306.635 309.01 302.616 367.874 283.829 367.874H184.367C165.58 367.874 161.561 309.01 161.561 309.01H306.635Z" fill="#0F423B"/>
<path d="M177.755 307.802H225.795" stroke="#A8BAA2" stroke-width="0.00973131" stroke-miterlimit="10" stroke-linecap="round" stroke-linejoin="round"/>
<path d="M211.791 328.395H184.377C181.654 328.395 179.447 326.189 179.447 323.468V322.143C179.447 319.42 181.654 317.213 184.377 317.213H211.791C214.512 317.213 216.719 319.42 216.719 322.143V323.468C216.719 326.189 214.512 328.395 211.791 328.395Z" fill="#DD9168"/>
<path d="M159.144 369.17L167.421 354.571H300.78L309.054 369.17" stroke="#0F423B" stroke-width="0.00973131" stroke-miterlimit="10"/>
<path d="M182.831 369.17L188.484 354.571H279.59L285.243 369.17" stroke="#0F423B" stroke-width="0.00973131" stroke-miterlimit="10"/>
<path d="M9.17004 369.17L17.4445 354.571H150.803L159.078 369.17" stroke="#0F423B" stroke-width="0.00973131" stroke-miterlimit="10"/>
<path d="M32.9773 369.17L38.6299 354.571H129.739L135.389 369.17" stroke="#0F423B" stroke-width="0.00973131" stroke-miterlimit="10"/>
<path d="M479.916 366.686H0.3479V382.215H479.916V366.686Z" fill="#DD9168"/>
<path d="M126.636 353.419L177.726 356.602L177.723 345.837L126.636 345.719V353.419Z" fill="#0F423B"/>
<path d="M26.4514 345.741C26.4514 345.741 30.3646 367.277 38.2557 367.274C46.1467 367.274 80.4139 367.267 80.4139 367.267C80.4139 367.267 114.684 367.259 122.575 367.257C130.466 367.255 134.371 345.719 134.371 345.719L26.4514 345.741Z" fill="#ED4C30"/>
<path d="M465.725 312.904V360.505C465.725 363.907 462.942 366.69 459.54 366.69L419.326 366.656H379.081C375.676 366.656 372.927 363.907 372.927 360.505V312.904C372.927 309.502 375.676 306.75 379.081 306.75H382.794V302.249H419.326V302.213L455.827 302.249V306.75H459.54C462.942 306.75 465.725 309.502 465.725 312.904Z" fill="#F4A16E"/>
<path d="M458.367 294.01H380.178V302.022H458.367V294.01Z" fill="#ED4C30"/>
<path d="M465.725 322.999H372.927V353.072H465.725V322.999Z" fill="#F5E5D6"/>
<path d="M368.512 323.564V361.727C368.512 364.457 367.496 366.686 366.255 366.686L351.564 366.659H336.864C335.623 366.659 334.618 364.457 334.618 361.727V323.564C334.618 320.836 335.623 318.632 336.864 318.632H338.221V315.022H351.564V314.993L364.898 315.022V318.632H366.255C367.496 318.632 368.512 320.836 368.512 323.564Z" fill="#006B5E"/>
<path d="M365.836 308.422H337.276V314.845H365.836V308.422Z" fill="#ED4C30"/>
<path d="M368.512 331.655H334.618V355.767H368.512V331.655Z" fill="#F5E5D6"/>
</g>
<defs>
<clipPath id="clip0">
<rect width="480" height="382" fill="white"/>
</clipPath>
</defs>
</svg>
